<svg width="166" height="33" viewBox="0 0 166 33" fill="none" xmlns="http://www.w3.org/2000/svg">
<path d="M60.4721 28.1601V32.102H37.4434V0.370117H59.8354V4.31202H41.9751V14.0591H57.8879V17.9121H41.9751V28.1554H60.4721V28.1601Z" fill="white"/>
<path d="M64.9109 28.4735L66.5869 24.9389C68.9418 27.069 72.9773 28.6093 77.0597 28.6093C82.5465 28.6093 84.9014 26.4791 84.9014 23.7123C84.9014 15.9596 65.6787 20.8565 65.6787 9.06826C65.6787 4.1713 69.4849 0 77.8275 0C81.5447 0 85.3976 0.997181 88.0287 2.80896L86.5306 6.4372C83.7637 4.66756 80.6364 3.85295 77.8275 3.85295C72.4343 3.85295 70.1216 6.11885 70.1216 8.88567C70.1216 16.6384 89.3395 11.7883 89.3395 23.4361C89.3395 28.2862 85.4397 32.4575 77.055 32.4575C72.2049 32.4575 67.4437 30.8237 64.9062 28.4688L64.9109 28.4735Z" fill="white"/>
<path d="M165.999 28.1601V32.102H142.971V0.370117H165.363V4.31202H147.502V14.0591H163.415V17.9121H147.502V28.1554H165.999V28.1601Z" fill="white"/>
<path d="M8.16402 8.51558V0.425781L0.0742188 8.51558H8.16402Z" fill="#9AD351"/>
<path d="M14.9015 0.425781L10.969 4.31619H13.0991C20.9408 4.31619 25.9735 9.11951 25.9735 16.2402C25.9735 23.3609 20.9408 28.1643 13.0991 28.1643H4.53179V10.6925L0 15.1775V32.1062H13.3706C23.5719 32.1062 30.5053 25.669 30.5053 16.2402C30.5053 6.81148 24.2554 1.04375 14.8968 0.43046L14.9015 0.425781Z" fill="white"/>
<path d="M95.9648 4.79891V32.102H100.497V0.370117H100.44L95.9648 4.79891Z" fill="white"/>
<path d="M128.646 21.4514C133.089 19.8643 135.626 16.3297 135.626 11.4327C135.626 4.54142 130.64 0.370117 122.391 0.370117H122.34L118.356 4.31202H122.255C128.056 4.31202 131.094 6.89627 131.094 11.4281C131.094 15.9598 128.056 18.5909 122.255 18.5909H114.549V8.08071L110.018 12.5657V32.102H114.549V22.4485H122.391C123.07 22.4485 123.753 22.4017 124.385 22.3596L131.23 32.1067H136.169L128.646 21.456V21.4514Z" fill="white"/>
</svg>
