<svg width="117" height="23" viewBox="0 0 117 23" fill="none" xmlns="http://www.w3.org/2000/svg">
<path d="M42.6218 19.8477V22.626H26.3906V0.260742H42.173V3.03908H29.5847V9.90903H40.8004V12.6247H29.5847V19.8444H42.6218V19.8477Z" fill="white"/>
<path d="M45.7504 20.0687L46.9317 17.5775C48.5914 19.0788 51.4357 20.1644 54.3131 20.1644C58.1803 20.1644 59.84 18.663 59.84 16.7129C59.84 11.2486 46.2915 14.7001 46.2915 6.3915C46.2915 2.94002 48.9742 0 54.8542 0C57.4742 0 60.1898 0.702834 62.0442 1.97981L60.9883 4.53707C59.0382 3.28979 56.834 2.71564 54.8542 2.71564C51.053 2.71564 49.4229 4.31269 49.4229 6.26281C49.4229 11.7271 62.9682 8.30862 62.9682 16.5182C62.9682 19.9367 60.2195 22.8768 54.3098 22.8768C50.8913 22.8768 47.5355 21.7252 45.7471 20.0654L45.7504 20.0687Z" fill="white"/>
<path d="M117 19.8477V22.626H100.769V0.260742H116.551V3.03908H103.963V9.90903H115.178V12.6247H103.963V19.8444H117V19.8477Z" fill="white"/>
<path d="M5.7546 6.00216V0.300293L0.0527344 6.00216H5.7546Z" fill="#9AD351"/>
<path d="M10.5029 0.300293L7.73117 3.04233H9.23253C14.7595 3.04233 18.3067 6.42782 18.3067 11.4466C18.3067 16.4655 14.7595 19.851 9.23253 19.851H3.1941V7.53651L0 10.6976V22.6293H9.42391C16.6139 22.6293 21.5008 18.0922 21.5008 11.4466C21.5008 4.80107 17.0957 0.73585 10.4996 0.303591L10.5029 0.300293Z" fill="white"/>
<path d="M67.6377 3.38225V22.626H70.8318V0.260742H70.7922L67.6377 3.38225Z" fill="white"/>
<path d="M90.6724 15.1192C93.8038 14.0007 95.5923 11.5094 95.5923 8.05791C95.5923 3.20076 92.0781 0.260742 86.264 0.260742H86.2278L83.4197 3.03908H86.1684C90.2567 3.03908 92.3982 4.86051 92.3982 8.05461C92.3982 11.2487 90.2567 13.1031 86.1684 13.1031H80.7371V5.69533L77.543 8.85643V22.626H80.7371V15.8221H86.264C86.7425 15.8221 87.2243 15.7891 87.6697 15.7594L92.4939 22.6293H95.975L90.6724 15.1225V15.1192Z" fill="white"/>
</svg>
