<svg width="166" height="33" viewBox="0 0 166 33" fill="none" xmlns="http://www.w3.org/2000/svg">
<path d="M60.4721 28.4316V32.3735H37.4434V0.641602H59.8354V4.58351H41.9751V14.3306H57.8879V18.1835H41.9751V28.4269H60.4721V28.4316Z" fill="white"/>
<path d="M64.9109 28.745L66.5869 25.2104C68.9418 27.3405 72.9773 28.8807 77.0597 28.8807C82.5465 28.8807 84.9014 26.7506 84.9014 23.9838C84.9014 16.2311 65.6787 21.128 65.6787 9.33974C65.6787 4.44279 69.4849 0.271484 77.8275 0.271484C81.5447 0.271484 85.3976 1.26867 88.0287 3.08044L86.5306 6.70868C83.7637 4.93904 80.6364 4.12444 77.8275 4.12444C72.4343 4.12444 70.1216 6.39033 70.1216 9.15716C70.1216 16.9099 89.3395 12.0598 89.3395 23.7076C89.3395 28.5577 85.4397 32.729 77.055 32.729C72.2049 32.729 67.4437 31.0951 64.9062 28.7403L64.9109 28.745Z" fill="white"/>
<path d="M165.999 28.4316V32.3735H142.971V0.641602H165.363V4.58351H147.502V14.3306H163.415V18.1835H147.502V28.4269H165.999V28.4316Z" fill="white"/>
<path d="M8.165 8.78707V0.697266L0.0751953 8.78707H8.165Z" fill="#9AD351"/>
<path d="M14.9015 0.697266L10.969 4.58767H13.0991C20.9408 4.58767 25.9735 9.391 25.9735 16.5117C25.9735 23.6324 20.9408 28.4357 13.0991 28.4357H4.53179V10.964L0 15.449V32.3777H13.3706C23.5719 32.3777 30.5053 25.9405 30.5053 16.5117C30.5053 7.08297 24.2554 1.31523 14.8968 0.701945L14.9015 0.697266Z" fill="white"/>
<path d="M95.9639 5.07039V32.3735H100.496V0.641602H100.439L95.9639 5.07039Z" fill="white"/>
<path d="M128.646 21.7228C133.089 20.1358 135.626 16.6012 135.626 11.7042C135.626 4.8129 130.64 0.641602 122.391 0.641602H122.34L118.356 4.58351H122.255C128.056 4.58351 131.094 7.16775 131.094 11.6995C131.094 16.2313 128.056 18.8624 122.255 18.8624H114.549V8.35219L110.018 12.8372V32.3735H114.549V22.72H122.391C123.07 22.72 123.753 22.6732 124.385 22.6311L131.23 32.3782H136.169L128.646 21.7275V21.7228Z" fill="white"/>
</svg>
