<svg width="117" height="24" viewBox="0 0 117 24" fill="none" xmlns="http://www.w3.org/2000/svg">
<path d="M42.6218 20.4737V23.252H26.3906V0.886719H42.173V3.66506H29.5847V10.535H40.8004V13.2507H29.5847V20.4704H42.6218V20.4737Z" fill="white"/>
<path d="M45.7494 20.6947L46.9307 18.2034C48.5904 19.7048 51.4348 20.7904 54.3121 20.7904C58.1793 20.7904 59.8391 19.289 59.8391 17.3389C59.8391 11.8746 46.2905 15.3261 46.2905 7.01747C46.2905 3.566 48.9732 0.625977 54.8532 0.625977C57.4732 0.625977 60.1888 1.32881 62.0433 2.60579L60.9874 5.16305C59.0372 3.91577 56.8331 3.34162 54.8532 3.34162C51.052 3.34162 49.4219 4.93867 49.4219 6.88879C49.4219 12.3531 62.9672 8.9346 62.9672 17.1442C62.9672 20.5627 60.2185 23.5027 54.3088 23.5027C50.8903 23.5027 47.5345 22.3511 45.7461 20.6914L45.7494 20.6947Z" fill="white"/>
<path d="M117.001 20.4737V23.252H100.77V0.886719H116.552V3.66506H103.964V10.535H115.179V13.2507H103.964V20.4704H117.001V20.4737Z" fill="white"/>
<path d="M5.75655 6.62813V0.92627L0.0546875 6.62813H5.75655Z" fill="#9AD351"/>
<path d="M10.5029 0.92627L7.73117 3.66831H9.23253C14.7595 3.66831 18.3067 7.05379 18.3067 12.0726C18.3067 17.0915 14.7595 20.4769 9.23253 20.4769H3.1941V8.16249L0 11.3236V23.2553H9.42391C16.6139 23.2553 21.5008 18.7182 21.5008 12.0726C21.5008 5.42705 17.0957 1.36183 10.4996 0.929567L10.5029 0.92627Z" fill="white"/>
<path d="M67.6367 4.00822V23.252H70.8308V0.886719H70.7912L67.6367 4.00822Z" fill="white"/>
<path d="M90.6724 15.7452C93.8038 14.6266 95.5923 12.1354 95.5923 8.68388C95.5923 3.82674 92.0781 0.886719 86.264 0.886719H86.2278L83.4197 3.66506H86.1684C90.2567 3.66506 92.3982 5.48649 92.3982 8.68059C92.3982 11.8747 90.2567 13.7291 86.1684 13.7291H80.7371V6.3213L77.543 9.48241V23.252H80.7371V16.4481H86.264C86.7425 16.4481 87.2243 16.4151 87.6697 16.3854L92.4939 23.2553H95.975L90.6724 15.7485V15.7452Z" fill="white"/>
</svg>
