<svg width="533" height="289" viewBox="0 0 533 289" fill="none" xmlns="http://www.w3.org/2000/svg">
<g opacity="0.3">
<mask id="path-1-outside-1_913_34055" maskUnits="userSpaceOnUse" x="-0.290138" y="-0.773244" width="653.59" height="290.591" fill="black">
<rect fill="white" x="-0.290138" y="-0.773244" width="653.59" height="290.591"/>
<path d="M1.27656 121.841L33.5612 1.48281L82.0661 14.4657C94.7738 17.8671 105.201 23.4224 113.348 31.1317C121.64 38.7566 127.237 47.8106 130.141 58.2935C133.045 68.7764 132.913 79.9212 129.746 91.7278C126.579 103.534 121.115 113.252 113.353 120.88C105.591 128.508 96.1964 133.611 85.1685 136.187C74.2849 138.68 62.4892 138.226 49.7815 134.824L1.27656 121.841ZM16.8226 114.208L52.0524 123.638C62.6044 126.462 72.2915 126.844 81.1138 124.782C90.0803 122.636 97.7032 118.473 103.983 112.29C110.293 105.994 114.739 98.031 117.322 88.4023C119.935 78.659 120.07 69.5423 117.727 61.0521C115.383 52.5619 110.85 45.2058 104.128 38.9837C97.5504 32.6774 88.9855 28.1121 78.4336 25.2877L43.2037 15.858L16.8226 114.208Z"/>
<path d="M170.966 95.9423L233.938 112.797L231.032 123.63L168.061 106.775L170.966 95.9423ZM157.431 151.844L229.082 171.022L226.13 182.026L141.885 159.477L174.17 39.1183L255.862 60.9842L252.91 71.9884L183.812 53.4935L157.431 151.844Z"/>
<path d="M288.305 199.774C279.455 197.405 271.33 193.694 263.929 188.642C256.673 183.505 251.447 178.052 248.252 172.283L255.816 163.803C258.908 169.054 263.586 174.053 269.852 178.802C276.262 183.466 283.382 186.846 291.211 188.941C298.699 190.946 305.015 191.653 310.159 191.065C315.447 190.391 319.6 188.739 322.616 186.106C325.746 183.504 327.834 180.254 328.88 176.357C330.14 171.657 329.793 167.51 327.839 163.915C325.998 160.351 323.137 157.19 319.256 154.431C315.406 151.557 311.04 148.792 306.159 146.134C301.278 143.476 296.412 140.761 291.562 137.988C286.742 135.101 282.443 131.862 278.664 128.27C274.998 124.709 272.326 120.615 270.648 115.989C269.115 111.279 269.209 105.714 270.931 99.2947C272.53 93.3341 275.522 88.2993 279.908 84.1903C284.437 79.9971 290.336 77.2758 297.603 76.0266C304.9 74.6627 313.598 75.3322 323.696 78.0351C330.39 79.8269 336.766 82.5778 342.824 86.2879C348.913 89.8833 353.894 93.9809 357.768 98.5806L350.792 107.586C346.609 102.781 341.839 98.8013 336.483 95.6477C331.24 92.5245 325.953 90.2491 320.62 88.8218C313.472 86.9085 307.311 86.3036 302.136 87.0071C296.961 87.7107 292.794 89.4208 289.633 92.1376C286.616 94.7702 284.554 98.1497 283.447 102.276C282.187 106.976 282.477 111.108 284.318 114.672C286.272 118.267 289.19 121.443 293.071 124.202C297.066 126.991 301.503 129.715 306.384 132.373C311.265 135.031 316.059 137.788 320.765 140.645C325.584 143.532 329.827 146.756 333.493 150.317C337.303 153.794 339.99 157.831 341.554 162.426C343.232 167.053 343.225 172.518 341.534 178.822C339.966 184.668 336.917 189.688 332.387 193.881C327.888 197.96 321.933 200.666 314.522 202C307.256 203.249 298.517 202.507 288.305 199.774Z"/>
<path d="M360.443 217.976L392.727 97.6179L405.322 100.989L373.037 221.347L360.443 217.976Z"/>
<path d="M411.8 231.723L444.084 111.364L488.675 123.299C498.773 126.002 507.007 129.988 513.377 135.255C519.777 140.409 524.076 146.596 526.274 153.819C528.615 160.957 528.618 168.882 526.281 177.594C524.006 186.076 520.052 192.881 514.421 198.008C508.933 203.05 502.113 206.262 493.96 207.642C485.837 208.908 476.727 208.19 466.629 205.487L429.017 195.42L436.201 191.077L424.394 235.094L411.8 231.723ZM493.152 253.498L474.232 201.625L487.847 205.269L506.938 257.187L493.152 253.498ZM435.924 192.109L431.922 184.587L469.194 194.564C481.108 197.752 490.835 197.53 498.377 193.897C506.031 190.295 511.135 183.737 513.687 174.223C516.269 164.594 515.148 156.308 510.322 149.365C505.609 142.452 497.296 137.401 485.383 134.212L448.111 124.236L455.341 119.721L435.924 192.109Z"/>
<path d="M563.872 201.108L626.843 217.963L623.938 228.795L560.966 211.94L563.872 201.108ZM550.337 257.009L621.988 276.188L619.036 287.192L534.791 264.643L567.075 144.284L648.768 166.15L645.816 177.154L576.718 158.659L550.337 257.009Z"/>
</mask>
<path d="M1.27656 121.841L33.5612 1.48281L82.0661 14.4657C94.7738 17.8671 105.201 23.4224 113.348 31.1317C121.64 38.7566 127.237 47.8106 130.141 58.2935C133.045 68.7764 132.913 79.9212 129.746 91.7278C126.579 103.534 121.115 113.252 113.353 120.88C105.591 128.508 96.1964 133.611 85.1685 136.187C74.2849 138.68 62.4892 138.226 49.7815 134.824L1.27656 121.841ZM16.8226 114.208L52.0524 123.638C62.6044 126.462 72.2915 126.844 81.1138 124.782C90.0803 122.636 97.7032 118.473 103.983 112.29C110.293 105.994 114.739 98.031 117.322 88.4023C119.935 78.659 120.07 69.5423 117.727 61.0521C115.383 52.5619 110.85 45.2058 104.128 38.9837C97.5504 32.6774 88.9855 28.1121 78.4336 25.2877L43.2037 15.858L16.8226 114.208Z" stroke="#9AD351" stroke-width="2" mask="url(#path-1-outside-1_913_34055)"/>
<path d="M170.966 95.9423L233.938 112.797L231.032 123.63L168.061 106.775L170.966 95.9423ZM157.431 151.844L229.082 171.022L226.13 182.026L141.885 159.477L174.17 39.1183L255.862 60.9842L252.91 71.9884L183.812 53.4935L157.431 151.844Z" stroke="#9AD351" stroke-width="2" mask="url(#path-1-outside-1_913_34055)"/>
<path d="M288.305 199.774C279.455 197.405 271.33 193.694 263.929 188.642C256.673 183.505 251.447 178.052 248.252 172.283L255.816 163.803C258.908 169.054 263.586 174.053 269.852 178.802C276.262 183.466 283.382 186.846 291.211 188.941C298.699 190.946 305.015 191.653 310.159 191.065C315.447 190.391 319.6 188.739 322.616 186.106C325.746 183.504 327.834 180.254 328.88 176.357C330.14 171.657 329.793 167.51 327.839 163.915C325.998 160.351 323.137 157.19 319.256 154.431C315.406 151.557 311.04 148.792 306.159 146.134C301.278 143.476 296.412 140.761 291.562 137.988C286.742 135.101 282.443 131.862 278.664 128.27C274.998 124.709 272.326 120.615 270.648 115.989C269.115 111.279 269.209 105.714 270.931 99.2947C272.53 93.3341 275.522 88.2993 279.908 84.1903C284.437 79.9971 290.336 77.2758 297.603 76.0266C304.9 74.6627 313.598 75.3322 323.696 78.0351C330.39 79.8269 336.766 82.5778 342.824 86.2879C348.913 89.8833 353.894 93.9809 357.768 98.5806L350.792 107.586C346.609 102.781 341.839 98.8013 336.483 95.6477C331.24 92.5245 325.953 90.2491 320.62 88.8218C313.472 86.9085 307.311 86.3036 302.136 87.0071C296.961 87.7107 292.794 89.4208 289.633 92.1376C286.616 94.7702 284.554 98.1497 283.447 102.276C282.187 106.976 282.477 111.108 284.318 114.672C286.272 118.267 289.19 121.443 293.071 124.202C297.066 126.991 301.503 129.715 306.384 132.373C311.265 135.031 316.059 137.788 320.765 140.645C325.584 143.532 329.827 146.756 333.493 150.317C337.303 153.794 339.99 157.831 341.554 162.426C343.232 167.053 343.225 172.518 341.534 178.822C339.966 184.668 336.917 189.688 332.387 193.881C327.888 197.96 321.933 200.666 314.522 202C307.256 203.249 298.517 202.507 288.305 199.774Z" stroke="#9AD351" stroke-width="2" mask="url(#path-1-outside-1_913_34055)"/>
<path d="M360.443 217.976L392.727 97.6179L405.322 100.989L373.037 221.347L360.443 217.976Z" stroke="#9AD351" stroke-width="2" mask="url(#path-1-outside-1_913_34055)"/>
<path d="M411.8 231.723L444.084 111.364L488.675 123.299C498.773 126.002 507.007 129.988 513.377 135.255C519.777 140.409 524.076 146.596 526.274 153.819C528.615 160.957 528.618 168.882 526.281 177.594C524.006 186.076 520.052 192.881 514.421 198.008C508.933 203.05 502.113 206.262 493.96 207.642C485.837 208.908 476.727 208.19 466.629 205.487L429.017 195.42L436.201 191.077L424.394 235.094L411.8 231.723ZM493.152 253.498L474.232 201.625L487.847 205.269L506.938 257.187L493.152 253.498ZM435.924 192.109L431.922 184.587L469.194 194.564C481.108 197.752 490.835 197.53 498.377 193.897C506.031 190.295 511.135 183.737 513.687 174.223C516.269 164.594 515.148 156.308 510.322 149.365C505.609 142.452 497.296 137.401 485.383 134.212L448.111 124.236L455.341 119.721L435.924 192.109Z" stroke="#9AD351" stroke-width="2" mask="url(#path-1-outside-1_913_34055)"/>
<path d="M563.872 201.108L626.843 217.963L623.938 228.795L560.966 211.94L563.872 201.108ZM550.337 257.009L621.988 276.188L619.036 287.192L534.791 264.643L567.075 144.284L648.768 166.15L645.816 177.154L576.718 158.659L550.337 257.009Z" stroke="#9AD351" stroke-width="2" mask="url(#path-1-outside-1_913_34055)"/>
</g>
</svg>
