<svg width="597" height="255" viewBox="0 0 597 255" fill="none" xmlns="http://www.w3.org/2000/svg">
<g opacity="0.3">
<mask id="path-1-outside-1_913_34053" maskUnits="userSpaceOnUse" x="-0.36666" y="-1.51741" width="598.764" height="417.475" fill="black">
<rect fill="white" x="-0.36666" y="-1.51741" width="598.764" height="417.475"/>
<path d="M61.6397 413.018L1.51535 308.991L43.4385 284.813C54.4218 278.478 65.3206 275.165 76.1349 274.872C86.99 274.424 96.9839 276.784 106.117 281.953C115.249 287.122 122.765 294.808 128.663 305.013C134.561 315.217 137.467 325.562 137.381 336.047C137.296 346.532 134.374 356.407 128.615 365.673C122.897 374.783 114.546 382.505 103.563 388.84L61.6397 413.018ZM67.0279 397.229L97.4773 379.668C106.597 374.408 113.461 368.072 118.068 360.659C122.716 353.091 125.071 345.062 125.133 336.572C125.137 327.983 122.734 319.528 117.924 311.206C113.057 302.784 106.928 296.478 99.5368 292.287C92.1455 288.095 84.036 286.167 75.208 286.503C66.4209 286.683 57.4673 289.403 48.3471 294.663L17.8977 312.224L67.0279 397.229Z"/>
<path d="M159.637 279.817L214.063 248.428L219.474 257.79L165.048 289.18L159.637 279.817ZM188.557 327.14L250.485 291.424L255.982 300.935L183.168 342.929L123.044 238.902L193.651 198.18L199.148 207.691L139.426 242.135L188.557 327.14Z"/>
<path d="M310.475 270.696C302.826 275.107 294.755 278.111 286.263 279.706C277.811 281.146 270.528 280.987 264.413 279.23L263.783 268.299C269.473 269.773 276.073 269.995 283.585 268.965C291.138 267.78 298.297 265.236 305.064 261.334C311.536 257.601 316.324 253.782 319.429 249.878C322.574 245.819 324.277 241.865 324.537 238.016C324.895 234.111 324.1 230.474 322.153 227.105C319.806 223.043 316.739 220.453 312.954 219.333C309.267 218.157 305.16 217.95 300.631 218.712C296.046 219.376 291.183 220.463 286.042 221.975C280.901 223.487 275.731 224.949 270.533 226.362C265.278 227.676 260.137 228.395 255.11 228.52C250.181 228.589 245.566 227.618 241.265 225.606C237.006 223.44 233.273 219.582 230.066 214.034C227.088 208.882 225.692 203.413 225.878 197.626C226.104 191.683 228.268 185.812 232.369 180.012C236.413 174.113 242.798 168.647 251.526 163.613C257.312 160.277 263.536 157.81 270.197 156.214C276.801 154.519 282.993 153.92 288.772 154.418L290.162 165.307C284.031 164.88 278.064 165.415 272.261 166.912C266.556 168.353 261.399 170.402 256.79 173.061C250.612 176.624 245.999 180.407 242.952 184.41C239.905 188.413 238.231 192.417 237.93 196.421C237.67 200.27 238.571 203.977 240.632 207.544C242.98 211.606 245.997 214.225 249.685 215.401C253.47 216.52 257.626 216.699 262.154 215.937C266.781 215.118 271.664 213.953 276.805 212.441C281.946 210.929 287.095 209.545 292.252 208.288C297.508 206.974 302.6 206.283 307.529 206.214C312.499 205.99 317.085 206.911 321.287 208.979C325.588 210.99 329.313 214.72 332.462 220.169C335.382 225.222 336.729 230.72 336.503 236.663C336.219 242.506 334.007 248.406 329.865 254.361C325.764 260.161 319.301 265.606 310.475 270.696Z"/>
<path d="M372.069 233.984L311.945 129.957L322.83 123.679L382.955 227.706L372.069 233.984Z"/>
<path d="M416.458 208.383L356.333 104.357L394.873 82.1297C403.601 77.0961 411.933 74.206 419.87 73.4594C427.75 72.6138 434.902 73.9045 441.329 77.3315C447.796 80.6028 453.205 86.0033 457.557 93.5328C461.795 100.864 463.743 108.195 463.403 115.524C463.104 122.698 460.646 129.531 456.031 136.024C451.358 142.418 444.657 148.131 435.929 153.165L403.421 171.914L405.355 164.062L427.343 202.106L416.458 208.383ZM486.771 167.832L438.476 145.355L450.244 138.569L498.686 160.96L486.771 167.832ZM405.87 164.953L398.009 162.551L430.224 143.972C440.521 138.034 447 131.259 449.662 123.647C452.421 115.979 451.425 108.034 446.672 99.8107C441.862 91.4886 435.443 86.6042 427.416 85.1575C419.486 83.6542 410.373 85.8719 400.076 91.8104L367.861 110.39L369.709 102.389L405.87 164.953Z"/>
<path d="M499.228 83.9649L553.654 52.5755L559.065 61.9379L504.639 93.3273L499.228 83.9649ZM528.148 131.287L590.076 95.571L595.573 105.082L522.759 147.076L462.635 43.0493L533.242 2.32792L538.739 11.8389L479.017 46.2825L528.148 131.287Z"/>
</mask>
<path d="M61.6397 413.018L1.51535 308.991L43.4385 284.813C54.4218 278.478 65.3206 275.165 76.1349 274.872C86.99 274.424 96.9839 276.784 106.117 281.953C115.249 287.122 122.765 294.808 128.663 305.013C134.561 315.217 137.467 325.562 137.381 336.047C137.296 346.532 134.374 356.407 128.615 365.673C122.897 374.783 114.546 382.505 103.563 388.84L61.6397 413.018ZM67.0279 397.229L97.4773 379.668C106.597 374.408 113.461 368.072 118.068 360.659C122.716 353.091 125.071 345.062 125.133 336.572C125.137 327.983 122.734 319.528 117.924 311.206C113.057 302.784 106.928 296.478 99.5368 292.287C92.1455 288.095 84.036 286.167 75.208 286.503C66.4209 286.683 57.4673 289.403 48.3471 294.663L17.8977 312.224L67.0279 397.229Z" stroke="#9AD351" stroke-width="2" mask="url(#path-1-outside-1_913_34053)"/>
<path d="M159.637 279.817L214.063 248.428L219.474 257.79L165.048 289.18L159.637 279.817ZM188.557 327.14L250.485 291.424L255.982 300.935L183.168 342.929L123.044 238.902L193.651 198.18L199.148 207.691L139.426 242.135L188.557 327.14Z" stroke="#9AD351" stroke-width="2" mask="url(#path-1-outside-1_913_34053)"/>
<path d="M310.475 270.696C302.826 275.107 294.755 278.111 286.263 279.706C277.811 281.146 270.528 280.987 264.413 279.23L263.783 268.299C269.473 269.773 276.073 269.995 283.585 268.965C291.138 267.78 298.297 265.236 305.064 261.334C311.536 257.601 316.324 253.782 319.429 249.878C322.574 245.819 324.277 241.865 324.537 238.016C324.895 234.111 324.1 230.474 322.153 227.105C319.806 223.043 316.739 220.453 312.954 219.333C309.267 218.157 305.16 217.95 300.631 218.712C296.046 219.376 291.183 220.463 286.042 221.975C280.901 223.487 275.731 224.949 270.533 226.362C265.278 227.676 260.137 228.395 255.11 228.52C250.181 228.589 245.566 227.618 241.265 225.606C237.006 223.44 233.273 219.582 230.066 214.034C227.088 208.882 225.692 203.413 225.878 197.626C226.104 191.683 228.268 185.812 232.369 180.012C236.413 174.113 242.798 168.647 251.526 163.613C257.312 160.277 263.536 157.81 270.197 156.214C276.801 154.519 282.993 153.92 288.772 154.418L290.162 165.307C284.031 164.88 278.064 165.415 272.261 166.912C266.556 168.353 261.399 170.402 256.79 173.061C250.612 176.624 245.999 180.407 242.952 184.41C239.905 188.413 238.231 192.417 237.93 196.421C237.67 200.27 238.571 203.977 240.632 207.544C242.98 211.606 245.997 214.225 249.685 215.401C253.47 216.52 257.626 216.699 262.154 215.937C266.781 215.118 271.664 213.953 276.805 212.441C281.946 210.929 287.095 209.545 292.252 208.288C297.508 206.974 302.6 206.283 307.529 206.214C312.499 205.99 317.085 206.911 321.287 208.979C325.588 210.99 329.313 214.72 332.462 220.169C335.382 225.222 336.729 230.72 336.503 236.663C336.219 242.506 334.007 248.406 329.865 254.361C325.764 260.161 319.301 265.606 310.475 270.696Z" stroke="#9AD351" stroke-width="2" mask="url(#path-1-outside-1_913_34053)"/>
<path d="M372.069 233.984L311.945 129.957L322.83 123.679L382.955 227.706L372.069 233.984Z" stroke="#9AD351" stroke-width="2" mask="url(#path-1-outside-1_913_34053)"/>
<path d="M416.458 208.383L356.333 104.357L394.873 82.1297C403.601 77.0961 411.933 74.206 419.87 73.4594C427.75 72.6138 434.902 73.9045 441.329 77.3315C447.796 80.6028 453.205 86.0033 457.557 93.5328C461.795 100.864 463.743 108.195 463.403 115.524C463.104 122.698 460.646 129.531 456.031 136.024C451.358 142.418 444.657 148.131 435.929 153.165L403.421 171.914L405.355 164.062L427.343 202.106L416.458 208.383ZM486.771 167.832L438.476 145.355L450.244 138.569L498.686 160.96L486.771 167.832ZM405.87 164.953L398.009 162.551L430.224 143.972C440.521 138.034 447 131.259 449.662 123.647C452.421 115.979 451.425 108.034 446.672 99.8107C441.862 91.4886 435.443 86.6042 427.416 85.1575C419.486 83.6542 410.373 85.8719 400.076 91.8104L367.861 110.39L369.709 102.389L405.87 164.953Z" stroke="#9AD351" stroke-width="2" mask="url(#path-1-outside-1_913_34053)"/>
<path d="M499.228 83.9649L553.654 52.5755L559.065 61.9379L504.639 93.3273L499.228 83.9649ZM528.148 131.287L590.076 95.571L595.573 105.082L522.759 147.076L462.635 43.0493L533.242 2.32792L538.739 11.8389L479.017 46.2825L528.148 131.287Z" stroke="#9AD351" stroke-width="2" mask="url(#path-1-outside-1_913_34053)"/>
</g>
</svg>
