<svg width="488" height="635" viewBox="0 0 488 635" fill="none" xmlns="http://www.w3.org/2000/svg">
<g opacity="0.3">
<mask id="path-1-outside-1_913_34054" maskUnits="userSpaceOnUse" x="-1049.34" y="-4.6836" width="1538.83" height="966.066" fill="black">
<rect fill="white" x="-1049.34" y="-4.6836" width="1538.83" height="966.066"/>
<path d="M-912.956 957.671L-1046.85 685.023L-936.974 631.178C-908.187 617.071 -880.13 610.57 -852.801 611.675C-825.343 612.394 -800.537 620.05 -778.382 634.644C-756.228 649.238 -738.584 669.908 -725.449 696.653C-712.315 723.399 -706.75 749.988 -708.756 776.421C-710.762 802.855 -719.82 827.267 -735.929 849.658C-751.908 871.663 -774.291 889.719 -803.078 903.826L-912.956 957.671ZM-896.668 918.762L-816.862 879.654C-792.958 867.94 -774.563 853.127 -761.676 835.214C-748.66 816.916 -741.349 797.064 -739.743 775.659C-738.265 753.995 -742.882 732.257 -753.593 710.445C-764.433 688.373 -778.816 671.421 -796.745 659.589C-814.673 647.757 -834.8 641.512 -857.125 640.855C-879.321 639.812 -902.371 645.147 -926.274 656.861L-1006.08 695.97L-896.668 918.762Z"/>
<path d="M-643.016 638.377L-500.367 568.473L-488.316 593.012L-630.965 662.916L-643.016 638.377ZM-578.148 762.674L-415.836 683.134L-403.594 708.062L-594.435 801.582L-728.332 528.934L-543.274 438.248L-531.032 463.176L-687.56 539.881L-578.148 762.674Z"/>
<path d="M-260.975 641.072C-281.023 650.897 -301.894 657.097 -323.588 659.674C-345.152 661.866 -363.497 660.224 -378.622 654.75L-378.344 627.069C-364.243 631.757 -347.631 633.442 -328.508 632.125C-309.255 630.422 -290.761 625.225 -273.026 616.534C-256.062 608.221 -243.332 599.405 -234.834 590.086C-226.207 580.382 -221.237 570.698 -219.924 561.034C-218.354 551.245 -219.737 541.935 -224.072 533.107C-229.301 522.461 -236.593 515.403 -245.95 511.934C-255.049 508.34 -265.375 507.118 -276.927 508.269C-288.607 509.16 -301.06 511.074 -314.286 514.012C-327.512 516.949 -340.802 519.757 -354.155 522.435C-367.636 524.853 -380.727 525.792 -393.429 525.251C-405.874 524.584 -417.349 521.348 -427.853 515.542C-438.228 509.351 -446.986 498.985 -454.127 484.443C-460.758 470.941 -463.345 456.906 -461.889 442.34C-460.303 427.388 -453.843 412.947 -442.508 399.016C-431.3 384.826 -414.259 372.126 -391.384 360.916C-376.219 353.485 -360.1 348.324 -343.024 345.433C-326.077 342.282 -310.356 341.827 -295.863 344.067L-294.216 371.771C-309.608 369.649 -324.75 369.982 -339.644 372.77C-354.28 375.432 -367.639 379.723 -379.719 385.643C-395.911 393.578 -408.193 402.335 -416.563 411.913C-424.933 421.492 -429.839 431.306 -431.282 441.355C-432.595 451.019 -430.956 460.525 -426.365 469.873C-421.137 480.519 -413.973 487.639 -404.873 491.234C-395.517 494.703 -385.062 495.862 -373.51 494.711C-361.701 493.434 -349.183 491.327 -335.957 488.389C-322.731 485.452 -309.506 482.837 -296.283 480.544C-282.802 478.126 -269.839 477.251 -257.394 477.917C-244.819 478.198 -233.409 481.305 -223.161 487.237C-212.657 493.042 -203.898 503.086 -196.885 517.368C-190.381 530.611 -187.922 544.708 -189.508 559.66C-191.221 574.352 -197.81 588.856 -209.274 603.173C-220.609 617.103 -237.843 629.736 -260.975 641.072Z"/>
<path d="M-99.3357 558.963L-233.232 286.314L-204.702 272.333L-70.8058 544.982L-99.3357 558.963Z"/>
<path d="M17.0034 501.952L-116.893 229.303L-15.8821 179.804C6.99313 168.594 28.5046 162.723 48.6523 162.193C68.6725 161.402 86.495 165.877 102.12 175.616C117.874 184.97 130.597 199.515 140.289 219.249C149.725 238.464 153.389 257.287 151.279 275.717C149.299 293.762 141.933 310.58 129.181 326.171C116.302 341.503 98.4253 354.774 75.55 365.983L-9.65382 407.737L-3.43454 388.259L45.5333 487.971L17.0034 501.952ZM201.29 411.643L83.3084 346.718L114.151 331.604L232.519 396.34L201.29 411.643ZM-2.28687 390.596L-21.7045 383.199L62.7283 341.823C89.7159 328.598 107.216 312.612 115.23 293.866C123.5 274.994 122.343 254.782 111.759 233.23C101.047 211.418 85.6905 198.003 65.6881 192.986C45.9428 187.843 22.5764 191.884 -4.41119 205.109L-88.844 246.485L-82.816 226.618L-2.28687 390.596Z"/>
<path d="M247.035 202.215L389.684 132.311L401.734 156.85L259.085 226.754L247.035 202.215ZM311.903 326.512L474.214 246.972L486.456 271.9L295.615 365.42L161.718 92.7718L346.776 2.08548L359.018 27.0133L202.49 103.719L311.903 326.512Z"/>
</mask>
<path d="M-912.956 957.671L-1046.85 685.023L-936.974 631.178C-908.187 617.071 -880.13 610.57 -852.801 611.675C-825.343 612.394 -800.537 620.05 -778.382 634.644C-756.228 649.238 -738.584 669.908 -725.449 696.653C-712.315 723.399 -706.75 749.988 -708.756 776.421C-710.762 802.855 -719.82 827.267 -735.929 849.658C-751.908 871.663 -774.291 889.719 -803.078 903.826L-912.956 957.671ZM-896.668 918.762L-816.862 879.654C-792.958 867.94 -774.563 853.127 -761.676 835.214C-748.66 816.916 -741.349 797.064 -739.743 775.659C-738.265 753.995 -742.882 732.257 -753.593 710.445C-764.433 688.373 -778.816 671.421 -796.745 659.589C-814.673 647.757 -834.8 641.512 -857.125 640.855C-879.321 639.812 -902.371 645.147 -926.274 656.861L-1006.08 695.97L-896.668 918.762Z" stroke="#9AD351" stroke-width="2" mask="url(#path-1-outside-1_913_34054)"/>
<path d="M-643.016 638.377L-500.367 568.473L-488.316 593.012L-630.965 662.916L-643.016 638.377ZM-578.148 762.674L-415.836 683.134L-403.594 708.062L-594.435 801.582L-728.332 528.934L-543.274 438.248L-531.032 463.176L-687.56 539.881L-578.148 762.674Z" stroke="#9AD351" stroke-width="2" mask="url(#path-1-outside-1_913_34054)"/>
<path d="M-260.975 641.072C-281.023 650.897 -301.894 657.097 -323.588 659.674C-345.152 661.866 -363.497 660.224 -378.622 654.75L-378.344 627.069C-364.243 631.757 -347.631 633.442 -328.508 632.125C-309.255 630.422 -290.761 625.225 -273.026 616.534C-256.062 608.221 -243.332 599.405 -234.834 590.086C-226.207 580.382 -221.237 570.698 -219.924 561.034C-218.354 551.245 -219.737 541.935 -224.072 533.107C-229.301 522.461 -236.593 515.403 -245.95 511.934C-255.049 508.34 -265.375 507.118 -276.927 508.269C-288.607 509.16 -301.06 511.074 -314.286 514.012C-327.512 516.949 -340.802 519.757 -354.155 522.435C-367.636 524.853 -380.727 525.792 -393.429 525.251C-405.874 524.584 -417.349 521.348 -427.853 515.542C-438.228 509.351 -446.986 498.985 -454.127 484.443C-460.758 470.941 -463.345 456.906 -461.889 442.34C-460.303 427.388 -453.843 412.947 -442.508 399.016C-431.3 384.826 -414.259 372.126 -391.384 360.916C-376.219 353.485 -360.1 348.324 -343.024 345.433C-326.077 342.282 -310.356 341.827 -295.863 344.067L-294.216 371.771C-309.608 369.649 -324.75 369.982 -339.644 372.77C-354.28 375.432 -367.639 379.723 -379.719 385.643C-395.911 393.578 -408.193 402.335 -416.563 411.913C-424.933 421.492 -429.839 431.306 -431.282 441.355C-432.595 451.019 -430.956 460.525 -426.365 469.873C-421.137 480.519 -413.973 487.639 -404.873 491.234C-395.517 494.703 -385.062 495.862 -373.51 494.711C-361.701 493.434 -349.183 491.327 -335.957 488.389C-322.731 485.452 -309.506 482.837 -296.283 480.544C-282.802 478.126 -269.839 477.251 -257.394 477.917C-244.819 478.198 -233.409 481.305 -223.161 487.237C-212.657 493.042 -203.898 503.086 -196.885 517.368C-190.381 530.611 -187.922 544.708 -189.508 559.66C-191.221 574.352 -197.81 588.856 -209.274 603.173C-220.609 617.103 -237.843 629.736 -260.975 641.072Z" stroke="#9AD351" stroke-width="2" mask="url(#path-1-outside-1_913_34054)"/>
<path d="M-99.3357 558.963L-233.232 286.314L-204.702 272.333L-70.8058 544.982L-99.3357 558.963Z" stroke="#9AD351" stroke-width="2" mask="url(#path-1-outside-1_913_34054)"/>
<path d="M17.0034 501.952L-116.893 229.303L-15.8821 179.804C6.99313 168.594 28.5046 162.723 48.6523 162.193C68.6725 161.402 86.495 165.877 102.12 175.616C117.874 184.97 130.597 199.515 140.289 219.249C149.725 238.464 153.389 257.287 151.279 275.717C149.299 293.762 141.933 310.58 129.181 326.171C116.302 341.503 98.4253 354.774 75.55 365.983L-9.65382 407.737L-3.43454 388.259L45.5333 487.971L17.0034 501.952ZM201.29 411.643L83.3084 346.718L114.151 331.604L232.519 396.34L201.29 411.643ZM-2.28687 390.596L-21.7045 383.199L62.7283 341.823C89.7159 328.598 107.216 312.612 115.23 293.866C123.5 274.994 122.343 254.782 111.759 233.23C101.047 211.418 85.6905 198.003 65.6881 192.986C45.9428 187.843 22.5764 191.884 -4.41119 205.109L-88.844 246.485L-82.816 226.618L-2.28687 390.596Z" stroke="#9AD351" stroke-width="2" mask="url(#path-1-outside-1_913_34054)"/>
<path d="M247.035 202.215L389.684 132.311L401.734 156.85L259.085 226.754L247.035 202.215ZM311.903 326.512L474.214 246.972L486.456 271.9L295.615 365.42L161.718 92.7718L346.776 2.08548L359.018 27.0133L202.49 103.719L311.903 326.512Z" stroke="#9AD351" stroke-width="2" mask="url(#path-1-outside-1_913_34054)"/>
</g>
</svg>
