<svg width="329" height="105" viewBox="0 0 329 105" fill="none" xmlns="http://www.w3.org/2000/svg">
<g opacity="0.3">
<mask id="path-1-outside-1_913_34056" maskUnits="userSpaceOnUse" x="0.88004" y="-0.554834" width="328.904" height="105.813" fill="black">
<rect fill="white" x="0.88004" y="-0.554834" width="328.904" height="105.813"/>
<path d="M10.0332 103.011L2.06827 41.1959L26.9971 38.0568C33.5282 37.2344 39.4135 37.8394 44.6532 39.8718C49.9436 41.838 54.2587 44.974 57.5987 49.2797C60.9387 53.5854 62.9994 58.7702 63.7807 64.8339C64.562 70.8977 63.882 76.4276 61.7405 81.4235C59.5991 86.4195 56.2207 90.5542 51.6055 93.8275C47.0409 97.0347 41.4931 99.0494 34.9621 99.8718L10.0332 103.011ZM15.7778 96.5442L33.884 94.2642C39.3071 93.5813 43.8648 91.9306 47.557 89.3119C51.2999 86.627 54.0366 83.2611 55.767 79.2143C57.4898 75.1086 58.0326 70.5832 57.3954 65.638C56.7506 60.6339 55.0775 56.3875 52.3762 52.8988C49.6748 49.41 46.1758 46.8593 41.8791 45.2466C37.6331 43.5676 32.7986 43.0696 27.3755 43.7525L9.26925 46.0325L15.7778 96.5442Z"/>
<path d="M83.6677 59.0094L116.031 54.9341L116.748 60.4974L84.3845 64.5727L83.6677 59.0094ZM88.0427 87.4445L124.867 82.8075L125.596 88.4591L82.2982 93.9112L74.3332 32.0961L116.319 26.8093L117.047 32.4609L81.5342 36.9328L88.0427 87.4445Z"/>
<path d="M157.76 84.9473C153.212 85.5201 148.744 85.3349 144.356 84.3918C140.018 83.3825 136.561 81.8436 133.983 79.7751L135.871 74.4222C138.302 76.2698 141.419 77.7019 145.225 78.7185C149.08 79.6688 153.02 79.8906 157.044 79.384C160.892 78.8993 163.951 78.0355 166.221 76.7925C168.541 75.4833 170.149 73.9347 171.044 72.1468C171.998 70.3516 172.346 68.4531 172.088 66.4515C171.777 64.0378 170.827 62.1831 169.238 60.8876C167.707 59.5846 165.781 58.6606 163.459 58.1154C161.129 57.5114 158.581 57.0545 155.815 56.7447C153.05 56.4348 150.28 56.0956 147.506 55.7269C144.725 55.2994 142.118 54.6106 139.685 53.6607C137.309 52.7034 135.293 51.3121 133.636 49.4867C132.029 47.5951 131.013 45.0008 130.589 41.704C130.194 38.6427 130.621 35.7472 131.869 33.0175C133.168 30.2215 135.381 27.8489 138.508 25.8997C141.627 23.8917 145.781 22.5609 150.971 21.9074C154.411 21.4741 157.887 21.545 161.398 22.1199C164.902 22.636 167.988 23.5934 170.657 24.9923L169.142 30.4778C166.29 29.0421 163.324 28.0994 160.244 27.6496C157.222 27.1926 154.341 27.1366 151.6 27.4817C147.927 27.9443 144.959 28.8266 142.697 30.1284C140.435 31.4303 138.831 33.0083 137.885 34.8624C136.989 36.6504 136.678 38.604 136.951 40.7234C137.262 43.1371 138.183 44.9954 139.714 46.2983C141.303 47.5939 143.259 48.5142 145.581 49.0594C147.961 49.5972 150.534 50.0211 153.3 50.3309C156.066 50.6407 158.81 51.0131 161.533 51.448C164.314 51.8755 166.892 52.5679 169.267 53.5252C171.693 54.4163 173.706 55.7782 175.305 57.6109C176.962 59.4363 177.999 61.968 178.417 65.2059C178.804 68.2084 178.348 71.1076 177.049 73.9035C175.742 76.6406 173.5 79.0168 170.323 81.0322C167.196 82.9814 163.009 84.2865 157.76 84.9473Z"/>
<path d="M194.625 79.7669L186.66 17.9518L193.133 17.1367L201.098 78.9518L194.625 79.7669Z"/>
<path d="M221.019 76.4432L213.054 14.6281L235.972 11.7424C241.161 11.0889 245.732 11.3808 249.684 12.6181C253.629 13.7966 256.797 15.8505 259.189 18.7799C261.632 21.6431 263.142 25.3118 263.719 29.786C264.28 34.1425 263.745 38.0388 262.114 41.4749C260.533 44.8447 257.987 47.6182 254.475 49.7955C250.955 51.9138 246.6 53.2997 241.41 53.9532L222.08 56.3874L224.579 53.0215L227.492 75.6281L221.019 76.4432ZM262.83 71.1784L244.195 50.7309L251.193 49.8498L269.915 70.2862L262.83 71.1784ZM224.648 53.5513L221.363 50.8241L240.519 48.4119C246.642 47.6409 251.103 45.7031 253.903 42.5985C256.761 39.4866 257.876 35.4874 257.246 30.6011C256.609 25.6559 254.512 22.0312 250.956 19.7269C247.458 17.4154 242.648 16.6451 236.525 17.4161L217.369 19.8282L219.857 16.374L224.648 53.5513Z"/>
<path d="M285.599 33.5818L317.963 29.5065L318.68 35.0699L286.316 39.1452L285.599 33.5818ZM289.974 62.0169L326.799 57.3799L327.527 63.0316L284.23 68.4836L276.265 6.66859L318.25 1.38172L318.979 7.03338L283.466 11.5052L289.974 62.0169Z"/>
</mask>
<path d="M10.0332 103.011L2.06827 41.1959L26.9971 38.0568C33.5282 37.2344 39.4135 37.8394 44.6532 39.8718C49.9436 41.838 54.2587 44.974 57.5987 49.2797C60.9387 53.5854 62.9994 58.7702 63.7807 64.8339C64.562 70.8977 63.882 76.4276 61.7405 81.4235C59.5991 86.4195 56.2207 90.5542 51.6055 93.8275C47.0409 97.0347 41.4931 99.0494 34.9621 99.8718L10.0332 103.011ZM15.7778 96.5442L33.884 94.2642C39.3071 93.5813 43.8648 91.9306 47.557 89.3119C51.2999 86.627 54.0366 83.2611 55.767 79.2143C57.4898 75.1086 58.0326 70.5832 57.3954 65.638C56.7506 60.6339 55.0775 56.3875 52.3762 52.8988C49.6748 49.41 46.1758 46.8593 41.8791 45.2466C37.6331 43.5676 32.7986 43.0696 27.3755 43.7525L9.26925 46.0325L15.7778 96.5442Z" stroke="#9AD351" stroke-width="2" mask="url(#path-1-outside-1_913_34056)"/>
<path d="M83.6677 59.0094L116.031 54.9341L116.748 60.4974L84.3845 64.5727L83.6677 59.0094ZM88.0427 87.4445L124.867 82.8075L125.596 88.4591L82.2982 93.9112L74.3332 32.0961L116.319 26.8093L117.047 32.4609L81.5342 36.9328L88.0427 87.4445Z" stroke="#9AD351" stroke-width="2" mask="url(#path-1-outside-1_913_34056)"/>
<path d="M157.76 84.9473C153.212 85.5201 148.744 85.3349 144.356 84.3918C140.018 83.3825 136.561 81.8436 133.983 79.7751L135.871 74.4222C138.302 76.2698 141.419 77.7019 145.225 78.7185C149.08 79.6688 153.02 79.8906 157.044 79.384C160.892 78.8993 163.951 78.0355 166.221 76.7925C168.541 75.4833 170.149 73.9347 171.044 72.1468C171.998 70.3516 172.346 68.4531 172.088 66.4515C171.777 64.0378 170.827 62.1831 169.238 60.8876C167.707 59.5846 165.781 58.6606 163.459 58.1154C161.129 57.5114 158.581 57.0545 155.815 56.7447C153.05 56.4348 150.28 56.0956 147.506 55.7269C144.725 55.2994 142.118 54.6106 139.685 53.6607C137.309 52.7034 135.293 51.3121 133.636 49.4867C132.029 47.5951 131.013 45.0008 130.589 41.704C130.194 38.6427 130.621 35.7472 131.869 33.0175C133.168 30.2215 135.381 27.8489 138.508 25.8997C141.627 23.8917 145.781 22.5609 150.971 21.9074C154.411 21.4741 157.887 21.545 161.398 22.1199C164.902 22.636 167.988 23.5934 170.657 24.9923L169.142 30.4778C166.29 29.0421 163.324 28.0994 160.244 27.6496C157.222 27.1926 154.341 27.1366 151.6 27.4817C147.927 27.9443 144.959 28.8266 142.697 30.1284C140.435 31.4303 138.831 33.0083 137.885 34.8624C136.989 36.6504 136.678 38.604 136.951 40.7234C137.262 43.1371 138.183 44.9954 139.714 46.2983C141.303 47.5939 143.259 48.5142 145.581 49.0594C147.961 49.5972 150.534 50.0211 153.3 50.3309C156.066 50.6407 158.81 51.0131 161.533 51.448C164.314 51.8755 166.892 52.5679 169.267 53.5252C171.693 54.4163 173.706 55.7782 175.305 57.6109C176.962 59.4363 177.999 61.968 178.417 65.2059C178.804 68.2084 178.348 71.1076 177.049 73.9035C175.742 76.6406 173.5 79.0168 170.323 81.0322C167.196 82.9814 163.009 84.2865 157.76 84.9473Z" stroke="#9AD351" stroke-width="2" mask="url(#path-1-outside-1_913_34056)"/>
<path d="M194.625 79.7669L186.66 17.9518L193.133 17.1367L201.098 78.9518L194.625 79.7669Z" stroke="#9AD351" stroke-width="2" mask="url(#path-1-outside-1_913_34056)"/>
<path d="M221.019 76.4432L213.054 14.6281L235.972 11.7424C241.161 11.0889 245.732 11.3808 249.684 12.6181C253.629 13.7966 256.797 15.8505 259.189 18.7799C261.632 21.6431 263.142 25.3118 263.719 29.786C264.28 34.1425 263.745 38.0388 262.114 41.4749C260.533 44.8447 257.987 47.6182 254.475 49.7955C250.955 51.9138 246.6 53.2997 241.41 53.9532L222.08 56.3874L224.579 53.0215L227.492 75.6281L221.019 76.4432ZM262.83 71.1784L244.195 50.7309L251.193 49.8498L269.915 70.2862L262.83 71.1784ZM224.648 53.5513L221.363 50.8241L240.519 48.4119C246.642 47.6409 251.103 45.7031 253.903 42.5985C256.761 39.4866 257.876 35.4874 257.246 30.6011C256.609 25.6559 254.512 22.0312 250.956 19.7269C247.458 17.4154 242.648 16.6451 236.525 17.4161L217.369 19.8282L219.857 16.374L224.648 53.5513Z" stroke="#9AD351" stroke-width="2" mask="url(#path-1-outside-1_913_34056)"/>
<path d="M285.599 33.5818L317.963 29.5065L318.68 35.0699L286.316 39.1452L285.599 33.5818ZM289.974 62.0169L326.799 57.3799L327.527 63.0316L284.23 68.4836L276.265 6.66859L318.25 1.38172L318.979 7.03338L283.466 11.5052L289.974 62.0169Z" stroke="#9AD351" stroke-width="2" mask="url(#path-1-outside-1_913_34056)"/>
</g>
</svg>
