<svg width="96" height="96" viewBox="0 0 96 96" fill="none" xmlns="http://www.w3.org/2000/svg">
<path fill-rule="evenodd" clip-rule="evenodd" d="M0 47.5359C1.10882e-05 47.5347 2.22182e-05 47.5335 3.33902e-05 47.5324C26.1395 47.2825 47.2822 26.1396 47.5316 4.34895e-05L47.5361 0C47.7864 26.2232 69.0637 47.4177 95.3186 47.5341C68.9078 47.6513 47.5339 69.0975 47.5339 95.5358C47.5339 95.6907 47.5346 95.8455 47.5361 96C47.5346 96 47.5332 96 47.5317 96C47.5331 95.8454 47.5339 95.6907 47.5339 95.5358C47.5339 69.1812 26.2952 47.7872 0 47.5359ZM95.7537 47.5341L95.8589 47.5335L96 47.5324L96 47.5358L95.901 47.535L95.7537 47.5341Z" fill="#9AD350"/>
</svg>
