<svg width="109" height="12" viewBox="0 0 109 12" fill="none" xmlns="http://www.w3.org/2000/svg">
<path d="M7.73246 11.3287V4.01253H12.0509V1.35019H0.269531V4.01253H4.58797V11.3287H7.73246Z" fill="#333333"/>
<path d="M16.349 7.15702V1.35019H13.3093V11.3287H15.9926L21.2335 5.52188V11.3287H24.2731V1.35019H21.5898L16.349 7.15702Z" fill="#333333"/>
<path d="M34.4993 7.61821V11.3287H37.539V1.35019H34.4993V4.9978H29.6148V1.35019H26.5752V11.3287H29.6148V7.61821H34.4993Z" fill="#333333"/>
<path d="M46.0042 11.3287C46.696 11.3287 47.3249 11.2658 47.9119 11.0981C49.4841 10.6579 50.5113 9.37913 50.5113 7.63918C50.5113 5.98308 49.6308 4.83009 48.2263 4.30601C47.5555 4.05445 46.7589 4.03349 46.0042 4.03349H42.8807V1.35019H39.841V11.3287H46.0042ZM45.4801 6.38138C45.8994 6.38138 46.2977 6.38138 46.6541 6.50716C47.1572 6.67486 47.4507 7.09413 47.4507 7.59725C47.4507 8.12133 47.1572 8.56156 46.675 8.77119C46.3396 8.91794 46.0042 8.91794 45.4801 8.91794H42.8807V6.38138H45.4801Z" fill="#333333"/>
<path d="M55.9614 7.55532L59.5881 11.3287H63.634L58.5818 6.12982L63.4453 1.35019H59.63L55.9614 5.10262H55.1229V1.35019H52.0832V11.3287H55.1229V7.55532H55.9614Z" fill="#333333"/>
<path d="M69.8886 1.07767C65.8007 1.07767 63.348 3.38363 63.348 6.36041C63.348 9.3372 65.8007 11.6432 69.8886 11.6432C73.9555 11.6432 76.4082 9.3372 76.4082 6.36041C76.4082 3.38363 73.9555 1.07767 69.8886 1.07767ZM69.8886 9.21142C67.8551 9.21142 66.5554 7.99555 66.5554 6.36041C66.5554 4.72528 67.8551 3.53037 69.8886 3.53037C71.9011 3.53037 73.2217 4.72528 73.2217 6.36041C73.2217 7.99555 71.9011 9.21142 69.8886 9.21142Z" fill="#333333"/>
<path d="M86.5313 0.78418H83.4916V1.79042C79.6763 1.87427 77.3913 3.48844 77.3913 6.33945C77.3913 9.19046 79.6763 10.6789 83.4916 10.7627V11.7689H86.5313V10.7627C90.3676 10.6789 92.6526 9.19046 92.6526 6.33945C92.6526 3.48844 90.3676 1.87427 86.5313 1.79042V0.78418ZM83.4916 8.62445C81.3953 8.5406 80.4729 7.6811 80.4729 6.33945C80.4729 4.9978 81.3953 4.03349 83.4916 3.94964V8.62445ZM86.5313 3.94964C88.6486 4.03349 89.55 4.9978 89.55 6.33945C89.55 7.6811 88.6486 8.5406 86.5313 8.62445V3.94964Z" fill="#333333"/>
<path d="M102.766 0.78418H99.7259V1.79042C95.9106 1.87427 93.6256 3.48844 93.6256 6.33945C93.6256 9.19046 95.9106 10.6789 99.7259 10.7627V11.7689H102.766V10.7627C106.602 10.6789 108.887 9.19046 108.887 6.33945C108.887 3.48844 106.602 1.87427 102.766 1.79042V0.78418ZM99.7259 8.62445C97.6296 8.5406 96.7072 7.6811 96.7072 6.33945C96.7072 4.9978 97.6296 4.03349 99.7259 3.94964V8.62445ZM102.766 3.94964C104.883 4.03349 105.784 4.9978 105.784 6.33945C105.784 7.6811 104.883 8.5406 102.766 8.62445V3.94964Z" fill="#333333"/>
</svg>
