<svg width="41" height="50" viewBox="0 0 41 50" fill="none" xmlns="http://www.w3.org/2000/svg">
<path d="M40.0361 23.5852L40.5627 21.328L38.8207 21.4011C38.6735 21.4011 37.6038 21.3605 36.5659 20.3528C36.6433 20.3629 36.7207 20.3772 36.7996 20.3772C37.8678 20.3772 38.9011 19.5157 39.3154 18.2845L40.065 16.0599C39.1257 16.0761 38.2669 15.9176 38.2669 15.9176C38.2593 15.9156 37.5825 15.7998 36.7996 14.7291C36.2381 13.9612 35.5432 13.5548 34.7906 13.5548C34.4613 13.5548 34.1669 13.6341 33.9135 13.7417C33.953 13.5609 33.9909 13.3781 34.0121 13.1891C34.2519 11.1067 33.2504 9.5179 33.2504 9.51993L31.9409 7.34808L31.1291 9.89985C31.1261 9.90798 30.9212 10.5053 30.554 10.7978C30.4432 10.0482 30.1716 9.20502 29.5905 8.39845C28.4949 6.87876 27.1611 6.65325 26.4632 6.65325C26.1399 6.65325 25.9093 6.69998 25.8532 6.71217L24.2721 7.12866C24.3631 6.65528 24.5573 5.83246 24.9124 5.0909L25.7849 3.27053L23.5892 3.60575L22.8897 1.61675L21.5362 2.55132L20.2844 0.895508L19.0356 2.55132L17.6775 1.61675L16.9795 3.60575L14.7854 3.27053L15.6594 5.0909C16.0145 5.83246 16.2087 6.65325 16.2982 7.12663L14.7899 6.72842L14.7383 6.71623C14.6625 6.69998 14.4333 6.65325 14.1086 6.65325C13.4106 6.65325 12.0768 6.8808 10.9843 8.39845C10.4017 9.20299 10.13 10.0482 10.0178 10.7978C9.65359 10.5094 9.45026 9.92017 9.45026 9.92017L8.63694 7.35417L7.3062 9.54025C7.14384 9.82265 6.34114 11.3159 6.55965 13.1932C6.58241 13.3801 6.61882 13.5629 6.65827 13.7438C6.40639 13.6361 6.11202 13.5568 5.78275 13.5568C5.03012 13.5568 4.33516 13.9632 3.77221 14.7312C2.99228 15.7978 2.31856 15.9176 2.32463 15.9176C2.32463 15.9176 1.61298 16.0883 0.511358 16.0619L1.25639 18.2866C1.67064 19.5198 2.70549 20.3792 3.77221 20.3792C3.85263 20.3792 3.93002 20.365 4.00892 20.3548C2.97407 21.3625 1.90432 21.4031 1.77534 21.4052L0 21.328L0.537153 23.5831C0.807248 24.7452 1.71009 26.6713 3.43991 26.8785C3.25175 27.9349 2.83447 29.1174 1.91797 29.6273L0.596331 30.3567L1.31709 32.0369C1.72375 32.943 2.67818 34.0035 4.03776 34.0035C4.33213 34.0015 4.61588 33.9629 4.88901 33.8857C4.95881 34.3002 5.04681 34.7146 5.15 35.125C5.55514 36.7382 5.20614 37.8637 5.20159 37.8759L4.54911 39.7064L6.0058 40.2204C6.02401 40.2286 6.46405 40.3891 7.01486 40.3891C7.26523 40.3891 7.50346 40.3545 7.72803 40.2834C7.89798 40.2306 8.06034 40.1595 8.21663 40.0742C8.40478 40.5272 8.63391 40.9396 8.90097 41.3094C9.83416 42.5914 11.1558 43.2415 12.831 43.2415H12.8371L14.0328 43.2212L11.5625 44.5946L13.4379 45.8075C14.1192 46.2524 14.928 46.7786 15.7504 47.1809L15.5168 48.0383L16.1632 48.4324C16.2208 48.467 17.4636 49.2126 19.5302 49.3711C19.5302 49.3711 20.0295 49.4015 20.3041 49.4015C20.5787 49.4015 21.0719 49.369 21.0719 49.369C23.1249 49.2065 24.3585 48.469 24.4162 48.4324L25.0641 48.0363L24.8274 47.1769C25.6741 46.7624 26.5117 46.2159 27.1642 45.7892L29.0048 44.5926L26.5421 43.2171L27.7423 43.2375C29.419 43.2375 30.7422 42.5873 31.6738 41.3033C31.9394 40.9356 32.1685 40.5231 32.3582 40.0701C32.5145 40.1554 32.6784 40.2265 32.8483 40.2794C33.0714 40.3505 33.3096 40.385 33.56 40.385C34.1017 40.385 34.5462 40.2245 34.5584 40.2204L36.0211 39.7024L35.3838 37.9064C35.3687 37.8596 35.0197 36.7361 35.4248 35.1209C35.528 34.7085 35.6145 34.2941 35.6843 33.8816C35.9589 33.9588 36.2457 33.9995 36.5416 33.9995C38.2729 33.9995 39.103 32.368 39.2638 32.0145L39.977 30.3526L38.6553 29.6253C37.7373 29.1153 37.3215 27.9309 37.1349 26.8765C38.8404 26.6814 39.7569 24.7554 40.0361 23.5852ZM16.4135 7.90476L16.3953 7.91085L16.4105 7.88444L16.4135 7.90476Z" fill="white"/>
<path d="M20.2851 7.80469C18.886 7.80672 17.8375 8.42028 17.6084 9.14152L20.2851 10.5556L22.9617 9.14152C22.7341 8.42028 21.6856 7.80672 20.2851 7.80469Z" fill="white"/>
<path d="M20.3147 45.2399H20.3117H20.2889H20.2631H20.2616C19.4134 45.248 18.2465 45.0143 17.6836 44.7949L17.0068 47.2471C17.4529 47.4605 18.9643 47.8668 20.2889 47.8668C21.6106 47.8668 23.1234 47.4584 23.568 47.2471L22.8928 44.7949C22.3283 45.0164 21.1629 45.248 20.3147 45.2399Z" fill="white"/>
<path d="M25.4355 42.8018C24.9317 43.1837 23.8073 43.7566 23.1533 44.0228L23.7026 46.0484C24.7147 45.6786 25.5493 45.2459 26.2397 44.7826L25.1001 44.2747L25.4355 42.8018Z" fill="white"/>
<path d="M15.1392 42.8018L15.476 44.2747L14.335 44.7826C15.0239 45.2459 15.863 45.6786 16.8705 46.0484L17.4198 44.0228C16.7688 43.7566 15.6429 43.1817 15.1392 42.8018Z" fill="white"/>
<path d="M20.2873 5.46238C21.3419 5.46238 22.3767 5.79964 23.1718 6.39289C23.2447 6.06579 23.3463 5.66961 23.4844 5.25515L23.184 5.30391L22.8684 5.34861L22.7348 4.96463L22.3327 3.82689L21.5998 4.33887L21.3146 4.53391L21.087 4.23322L20.2903 3.17676L19.4952 4.23322L19.2676 4.53391L18.9824 4.33887L18.2449 3.82689L17.8473 4.96463L17.7108 5.34861L17.3952 5.30391L17.0947 5.25515C17.2328 5.67165 17.333 6.06579 17.4073 6.39289C18.2039 5.79964 19.2358 5.46238 20.2873 5.46238Z" fill="white"/>
<path d="M36.387 18.611C36.5236 18.674 36.6632 18.7024 36.8013 18.7024C37.3976 18.7024 37.9742 18.1864 38.173 17.5952C38.173 17.5952 37.0789 17.5058 35.903 15.9069C35.5282 15.3888 35.1321 15.2344 34.7922 15.2344C34.2642 15.2344 33.8682 15.6082 33.8682 15.6082C35.2884 16.62 35.5783 18.2453 36.387 18.611Z" fill="white"/>
<path d="M3.76961 18.7024C3.90769 18.7024 4.04729 18.674 4.18082 18.611C4.99262 18.2453 5.28396 16.62 6.70423 15.6082C6.70423 15.6082 6.30668 15.2344 5.78166 15.2344C5.44025 15.2344 5.04421 15.3888 4.6679 15.9069C3.49345 17.5058 2.39941 17.5952 2.39941 17.5952C2.59516 18.1864 3.17328 18.7024 3.76961 18.7024Z" fill="white"/>
<path d="M36.7713 25.2142C36.7955 25.2162 36.8168 25.2162 36.8426 25.2162C38.3311 25.2162 38.8364 23.081 38.8364 23.081H38.8076C38.5345 23.081 36.3206 22.9956 34.7562 20.3321C33.7259 18.5808 32.8822 17.0408 31.2146 16.4354L31.0507 16.3968L31.0143 16.1733C30.9688 15.832 31.1433 15.513 31.5393 15.1676C33.8397 13.1502 32.2783 10.5781 32.2783 10.5781C32.2783 10.5781 31.6213 12.6362 30.1509 12.6362C30.116 12.6362 30.0781 12.6341 30.0417 12.6341C29.8748 12.6219 29.7139 12.6138 29.5515 12.5671L29.2799 12.496C29.2799 12.496 29.6987 10.9702 28.6882 9.56834C27.9264 8.50984 26.9993 8.33105 26.4637 8.33105C26.1936 8.33105 26.0221 8.37778 26.0221 8.37778C26.5304 9.26765 26.8976 10.7426 26.3104 11.6528C25.8036 12.435 24.5654 12.4736 24.5654 13.6398C24.5654 14.1335 24.9099 14.7105 25.529 15.2286C27.3908 16.799 29.239 18.8815 30.0068 21.673C30.9673 25.1553 29.8854 27.4653 28.3407 28.7899C28.3407 28.7899 28.8247 29.3872 29.5273 29.4624C29.6699 29.4807 29.8095 29.4888 29.94 29.4888C31.4225 29.4888 32.1888 28.5583 32.1888 28.5583C32.1888 28.5583 32.0628 29.8444 31.2905 31.039C30.5788 32.1422 29.6441 32.7903 28.2193 32.8187C28.2193 32.8187 28.1738 33.7045 28.805 34.4705C29.2086 34.954 30.1418 35.1125 30.1418 35.1125C30.1418 35.1125 28.3953 35.5859 28.2026 39.0397C28.0979 40.9109 27.7413 41.561 27.7413 41.561H27.7732C31.8261 41.561 31.7214 36.9064 31.7214 36.9064C31.7214 36.9064 32.0036 38.2839 33.1341 38.6435C33.2707 38.6923 33.4163 38.7106 33.5559 38.7106C33.9201 38.7106 34.2357 38.5968 34.2357 38.5968C34.2357 38.5968 33.6439 36.9247 34.2312 34.5863C34.7182 32.646 34.6393 31.2076 34.6393 31.2076C34.6393 31.2076 35.1856 32.3128 36.5391 32.323H36.5528C37.6802 32.323 38.1718 31.1792 38.1718 31.1792C35.4693 29.6778 35.7364 24.8302 35.7364 24.8302C35.7364 24.8302 36.0869 25.1797 36.7713 25.2142ZM35.9579 30.2771C34.8594 29.5518 34.1644 27.6258 33.996 26.931C33.8139 30.7505 32.4209 33.4018 30.7928 35.9536C29.9476 37.2762 29.6532 38.5623 29.6532 38.5623C29.6532 38.5623 29.8156 37.1055 30.547 35.9191C32.0659 33.475 33.5089 30.4336 33.6166 26.9167C33.691 24.4625 33.2191 22.4715 32.4831 20.8319C32.8943 22.5405 32.8367 24.6331 31.4392 26.5856C31.4392 26.5856 34.2205 22.122 30.3315 17.5467C28.7746 15.8056 27.0721 14.7308 26.1951 13.9689C29.3634 15.3525 30.9096 13.8287 30.9096 13.8287C29.8975 15.003 28.588 14.9827 27.7762 14.8141C27.9962 14.9584 28.2254 15.1087 28.4727 15.2854C31.1433 17.2277 33.5438 20.4235 33.9535 24.8505V24.816C34.5756 29.1617 35.9579 30.2771 35.9579 30.2771Z" fill="white"/>
<path d="M10.427 35.1125C10.427 35.1125 11.3602 34.956 11.7638 34.4705C12.3935 33.7045 12.3495 32.8187 12.3495 32.8187C10.9232 32.7923 9.99001 32.1422 9.27381 31.041C8.50753 29.8464 8.38007 28.5604 8.38007 28.5604C8.38007 28.5604 9.14635 29.4909 10.6273 29.4909C10.7608 29.4909 10.8989 29.4827 11.0416 29.4644C11.7441 29.3893 12.2297 28.792 12.2297 28.792C10.685 27.4673 9.60156 25.1553 10.5605 21.673C11.3299 18.8835 13.1765 16.799 15.0383 15.2286C15.6574 14.7105 16.0019 14.1355 16.0019 13.6398C16.0019 12.4736 14.7652 12.435 14.2584 11.6528C13.6712 10.7426 14.0399 9.26562 14.5467 8.37778C14.5467 8.37778 14.3783 8.33105 14.1067 8.33105C13.5726 8.33105 12.6454 8.50984 11.8837 9.56834C10.8701 10.9702 11.2904 12.496 11.2904 12.496L11.0188 12.5671C10.8564 12.6138 10.6941 12.6219 10.5287 12.6341C10.4908 12.6341 10.4574 12.6362 10.421 12.6362C8.94757 12.6362 8.29358 10.5801 8.29358 10.5801C8.29358 10.5801 6.7322 13.1522 9.03103 15.1696C9.42707 15.515 9.60005 15.834 9.55453 16.1753L9.51811 16.3988L9.3512 16.4374C7.68663 17.0428 6.84145 18.5828 5.81114 20.3341C4.24976 22.9936 2.03893 23.081 1.76277 23.081H1.73242C1.73242 23.081 2.23771 25.2162 3.72626 25.2162C3.75054 25.2162 3.77178 25.2162 3.79758 25.2142C4.48192 25.1817 4.83395 24.8302 4.83395 24.8302C4.83395 24.8302 5.09797 29.6757 2.39855 31.1792C2.39855 31.1792 2.89018 32.323 4.0176 32.323H4.03126C5.38628 32.3128 5.93102 31.2076 5.93102 31.2076C5.93102 31.2076 5.85211 32.646 6.33768 34.5863C6.9249 36.9247 6.33616 38.5968 6.33616 38.5968C6.33616 38.5968 6.65177 38.7106 7.01443 38.7106C7.15554 38.7106 7.2997 38.6923 7.43474 38.6435C8.56367 38.2839 8.84743 36.9064 8.84743 36.9064C8.84743 36.9064 8.74424 41.561 12.7972 41.561H12.826C12.826 41.561 12.4709 40.9109 12.3678 39.0397C12.1735 35.5859 10.427 35.1125 10.427 35.1125ZM9.77606 35.9536C8.14791 33.4018 6.75647 30.7505 6.57287 26.931C6.40444 27.6238 5.71251 29.5518 4.61393 30.2771C4.61393 30.2771 5.99475 29.1617 6.61536 24.816V24.8505C7.02657 20.4256 9.42555 17.2277 12.0977 15.2854C12.342 15.1067 12.5741 14.9563 12.7926 14.8141C11.9808 14.9827 10.6713 15.003 9.65923 13.8287C9.65923 13.8287 11.2054 15.3525 14.3722 13.9689C13.4952 14.7308 11.7942 15.8056 10.2373 17.5467C6.34678 22.122 9.12966 26.5856 9.12966 26.5856C7.73063 24.6311 7.67449 22.5405 8.0857 20.8319C7.34825 22.4735 6.87786 24.4625 6.95373 26.9167C7.05995 30.4336 8.50298 33.475 10.0188 35.9191C10.7517 37.1035 10.9171 38.5623 10.9171 38.5623C10.9171 38.5623 10.6197 37.2762 9.77606 35.9536Z" fill="white"/>
<path d="M17.2895 18.0951C17.3563 18.1906 17.4215 18.2942 17.4837 18.3979C17.4989 18.4222 17.5125 18.4446 17.5277 18.473C17.5854 18.5766 17.6446 18.6863 17.7007 18.7981C17.7128 18.8204 17.725 18.8469 17.7386 18.8733C17.8069 19.0114 17.8707 19.1536 17.9344 19.2999C18.5186 20.651 19.4548 21.4575 20.2848 21.4596C21.1163 21.4575 22.0495 20.651 22.6368 19.2999C22.702 19.1496 22.7672 19.0033 22.8355 18.8672C22.8461 18.8469 22.8568 18.8286 22.8659 18.8082C22.9235 18.6924 22.9842 18.5787 23.048 18.469C23.0616 18.4446 23.0738 18.4243 23.0859 18.4039C23.1511 18.2963 23.2179 18.1906 23.2862 18.0931C23.2983 18.0769 23.3074 18.0626 23.3181 18.0504C23.6155 17.6421 23.9705 17.3312 24.4348 17.1585L24.2285 16.998H24.2163L23.3939 16.3581L22.5487 15.71L20.2909 17.3556L20.2848 17.3495L20.2803 17.3556L18.0209 15.71L17.1772 16.356L16.3533 16.996H16.3442L16.1348 17.1565C16.6006 17.3292 16.9542 17.636 17.2531 18.0443C17.2667 18.0606 17.2758 18.0789 17.2895 18.0951ZM19.3713 17.9631H20.3273H21.2817V18.8408C21.0572 18.473 20.6201 18.5482 20.6201 18.5482V19.8139C20.6201 19.8139 20.6368 20.4356 20.7992 20.7058H20.3273H19.8539C20.0193 20.4376 20.0344 19.8139 20.0344 19.8139V18.5482C20.0344 18.5482 19.5989 18.473 19.3713 18.8408V17.9631Z" fill="white"/>
<path d="M20.0895 16.261V11.123L17.6465 10.0137L18.2914 14.9933L20.0895 16.261ZM19.5645 12.3846V13.2095L19.4461 13.1363C19.44 13.1302 19.2671 13.0774 18.9636 12.7564C18.4628 12.2363 18.4537 11.7568 18.4537 11.7568L19.5645 12.3846Z" fill="white"/>
<path d="M22.2811 14.9933L22.9229 10.0137L20.4814 11.123V16.261L22.2811 14.9933ZM21.0065 12.3846L22.1172 11.7589C22.1172 11.7589 22.1081 12.2383 21.6058 12.7585C21.3039 13.0795 21.1294 13.1323 21.1233 13.1384L21.0049 13.2115V12.3846H21.0065Z" fill="white"/>
<path d="M16.6336 28.1721C16.8719 28.2879 17.1602 28.3123 17.3074 28.3123C17.3134 28.2879 17.321 28.2574 17.3286 28.2208C17.3423 28.1619 17.3544 28.105 17.3635 28.04C17.4045 27.7556 17.4197 27.4326 17.4227 27.2253C17.3225 27.142 17.1814 26.9937 17.1025 26.7723C17.0115 26.5163 16.8825 26.3984 16.6928 26.3984C16.447 26.3984 16.183 26.5955 16.0707 26.689C15.9812 27.398 16.3711 28.0421 16.6336 28.1721Z" fill="white"/>
<path d="M22.0386 25.4453C21.5849 26.1056 20.6972 27.2555 20.6532 27.3144L20.6001 27.3876L17.7945 27.3287C17.793 27.7005 17.7474 28.0174 17.7034 28.249C17.6958 28.2876 17.6883 28.3282 17.6807 28.3689L21.0189 29.1714C21.3664 28.8463 22.3223 27.9118 22.6926 27.5461C22.4225 27.0178 22.3967 26.3921 22.4574 25.9512C22.2814 25.7988 22.1463 25.6282 22.0386 25.4453Z" fill="white"/>
<path d="M22.4195 20.927C21.7731 21.7864 21.1525 22.1033 20.5987 22.1765C20.4985 22.1907 20.3969 22.1988 20.2937 22.1988H20.2861H20.28C20.1769 22.1988 20.0737 22.1907 19.9735 22.1765C19.8764 22.1643 19.7747 22.144 19.6731 22.1135C19.6367 22.3065 19.5911 22.7108 19.7216 23.0928C19.8385 23.4402 20.0767 23.6982 20.4242 23.8688L20.541 23.9298L20.5425 24.0984C20.5425 24.1492 20.5699 25.2423 21.4606 25.545C21.6062 25.3438 21.7382 25.163 21.8354 25.0127C21.6533 24.4397 21.7489 23.8546 22.0129 23.5682C22.0007 23.6291 21.8854 25.0635 22.7443 25.5958L22.8854 25.6852L22.8429 25.8863C22.8292 25.9472 22.5425 27.3349 23.5819 27.8509L23.7655 27.9444L23.6835 28.1841C23.6653 28.2369 23.2571 29.4966 24.2176 30.2117H26.301V27.9972C25.5605 27.8753 25.2464 27.0789 25.166 26.5141C24.8216 26.4348 24.5545 26.2357 24.3724 25.9107C23.9354 25.1407 24.3117 24.4357 24.3163 24.3971C24.3148 24.4032 24.3163 25.1549 24.6622 25.6181C24.8337 25.8416 25.037 26.0143 25.3451 26.0529L25.4968 26.0712L25.5105 26.2784C25.5135 26.3231 25.5969 27.3389 26.3025 27.4994L26.301 22.9769C26.301 22.276 26.4543 21.571 26.6379 20.9209H22.4195V20.927Z" fill="white"/>
<path d="M16.813 23.002L16.7568 25.8829L17.0011 25.9316L17.599 23.1686L17.2955 22.3193L16.813 23.002Z" fill="white"/>
<path d="M23.4032 36.2107C23.4214 36.2107 23.4426 36.2148 23.4624 36.2209C23.8341 36.3631 23.9282 38.1591 24.5807 38.3196C24.6444 38.3379 24.7036 38.3419 24.7552 38.3419C24.9433 38.3419 25.0556 38.2343 25.177 38.0433C25.177 38.0433 24.8492 37.3525 24.6034 36.8873C24.2772 36.2778 24.0238 35.5403 23.4168 35.5403C23.4032 35.5403 23.385 35.5403 23.3698 35.5423C23.1695 35.5565 23.0466 35.6865 23.0466 35.6865C22.8008 35.4793 22.5717 35.4082 22.3638 35.4082C21.9829 35.4082 21.687 35.6418 21.5398 35.6418H21.5338L20.1772 35.4631C19.9648 35.4367 19.7979 35.1502 19.7372 35.0384C19.722 35.008 19.7144 34.9897 19.7144 34.9897C19.7144 34.9409 19.7144 34.8901 19.7114 34.8454C19.6659 33.3603 18.807 32.7244 18.502 32.7142C18.502 32.7142 18.5385 32.4318 18.455 32.3241L18.1561 32.8097L17.1743 32.1494L17.8738 33.2445L17.2805 34.1364C17.2062 34.238 17.2153 34.3761 17.2456 34.433L17.5021 34.7357L17.8268 34.4716C17.8435 34.4554 17.8723 34.4513 17.9087 34.4513C17.9983 34.4513 18.1333 34.4818 18.2547 34.4818C18.3867 34.4818 18.502 34.4432 18.5157 34.2766C18.4747 34.8271 18.0939 35.7841 18.3442 36.5358L18.5293 37.1026L17.3306 36.871L16.7692 38.1408C16.5962 38.5634 16.5689 39.0205 16.7358 39.2684L16.9452 39.6199C16.9452 39.6199 17.2396 39.2013 17.3063 38.9271L17.2107 38.7869C17.1303 38.669 17.1349 38.5634 17.1834 38.4354L17.5355 37.6532L18.9512 38.1002L19.0255 37.9295C19.1211 37.7162 19.2592 37.6512 19.4109 37.6512C19.4732 37.6512 19.5369 37.6613 19.6037 37.6755C19.8662 37.7446 20.2986 37.8381 20.7311 37.8381C21.206 37.8381 21.6764 37.7243 21.9268 37.3484C22.4396 38.3663 23.479 38.5288 23.3971 39.0449L23.124 40.7881C23.3045 40.7779 23.479 40.7616 23.6444 40.7312L23.9039 38.9169C23.9327 38.7198 23.9601 38.4537 23.9601 38.4537C23.8599 38.3176 23.6171 38.0291 23.4806 37.6796C23.297 37.2083 23.3971 36.9624 23.2256 36.3489C23.2317 36.3529 23.2833 36.2107 23.4032 36.2107ZM18.1075 33.663C18.0377 33.661 17.9876 33.5817 17.9907 33.4883C17.9967 33.3989 18.0529 33.3278 18.1212 33.3359C18.191 33.34 18.241 33.4212 18.238 33.5106C18.2319 33.6 18.1743 33.6691 18.1075 33.663Z" fill="white"/>
<path d="M16.1752 37.8624C16.1752 37.8624 16.644 37.6044 16.6865 37.4195L16.6243 37.2102C16.5803 37.0741 16.5864 36.9258 16.6713 36.8445L17.1782 36.3752L18.0249 36.5926C18.0249 36.5926 17.8716 36.3366 17.8868 35.9933L17.0795 35.7637L16.3178 36.3854C15.9916 36.7125 15.9673 37.2468 16.075 37.5637L16.1752 37.8624Z" fill="white"/>
<path d="M22.1582 40.817C22.3099 40.8089 22.4769 40.8048 22.6605 40.8048C22.6605 40.8048 23.0959 39.1002 23.1202 39.0454C22.8759 38.9011 22.3691 38.5415 22.1734 38.377C22.3024 38.635 22.6165 38.9316 22.5542 39.1591L22.1582 40.817Z" fill="white"/>
<path d="M26.304 30.7041H14.2666V36.7666C14.2666 39.2452 15.6065 40.7974 17.5836 40.7974C19.236 40.7974 19.6715 40.8827 20.2861 41.6995C20.7094 41.1347 21.0599 40.9234 21.7792 40.8441L21.7959 40.7507L22.1752 39.1802C22.154 39.1457 21.5333 38.2009 21.5333 38.2009C21.2875 38.3107 21.0812 38.3289 20.7337 38.3289C20.3771 38.3289 19.975 38.2741 19.5395 38.1644C19.4955 38.1502 19.4545 38.1461 19.4136 38.1461C19.3605 38.1461 19.3559 38.1522 19.3422 38.1867L19.2664 38.3533L19.1283 38.6581L18.8688 38.5788L17.7141 38.2152L17.5563 38.5646L17.5806 38.6012L17.7217 38.8084L17.6595 39.0786C17.5745 39.4321 17.2983 39.8446 17.2149 39.9583L16.9266 40.3728L16.6641 39.9279L16.4668 39.5967C16.2589 39.2859 16.2104 38.8084 16.3272 38.3086C16.3242 38.3127 16.3196 38.3147 16.3151 38.3147L15.9888 38.4955L15.8416 38.0689L15.7385 37.7662C15.5609 37.2339 15.6262 36.4557 16.1042 35.9864L17.0343 35.2835L17.9189 35.5171C17.9402 35.4033 17.9721 34.997 17.9978 34.8934C17.9812 34.8914 17.9645 34.8853 17.9478 34.8853L17.4379 35.1392L16.9463 34.6841C16.9463 34.6841 16.7536 34.4363 16.9281 34.1884L17.4046 33.2234L16.1982 31.1958L18.0525 32.2157L18.1754 32.0105L18.4257 31.6102L18.7095 31.9719C18.7899 32.0755 18.8354 32.2035 18.8582 32.3315C19.3696 32.5976 20.2845 33.3839 20.365 34.6618L20.0782 34.8162V34.8263C20.1434 34.93 20.1981 34.9726 20.2147 34.9767L21.5379 35.1514C21.5713 35.1433 21.6138 35.123 21.6608 35.1047C21.8247 35.0295 22.072 34.9218 22.3649 34.9218C22.6031 34.9218 22.8337 34.995 23.0553 35.1331C23.1372 35.0925 23.2374 35.062 23.3527 35.0519L23.4164 35.0498C24.125 35.0498 24.4771 35.7589 24.7593 36.3237C24.8063 36.4212 24.8534 36.5147 24.9019 36.6061C25.1493 37.0734 25.4725 37.758 25.4861 37.7865L25.6318 38.0912L25.4528 38.3696C25.3147 38.5829 25.1083 38.8328 24.7532 38.8328C24.6804 38.8328 24.6 38.8226 24.5135 38.8003C24.4376 38.782 24.3693 38.7515 24.3026 38.715C24.292 38.8084 24.2783 38.9202 24.2646 39.0156L24.0325 40.6369C25.4209 40.1798 26.3025 38.7759 26.3025 36.7686L26.304 30.7041Z" fill="#FFDD2D"/>
<path d="M14.2664 30.2167H23.6272C23.1598 29.5707 23.1659 28.7519 23.2858 28.2196C23.1492 28.1323 23.0369 28.0266 22.9368 27.9128C22.5711 28.2745 21.4543 29.3634 21.1629 29.6357L21.1007 29.6926L17.4271 28.8027H17.3528C17.2648 28.8027 17.1358 28.7986 16.9947 28.7763C16.9552 28.9977 16.8126 29.1501 16.6487 29.1501C16.6305 29.1501 16.6093 29.1481 16.5896 29.142C16.494 29.1196 16.4105 29.0546 16.3544 28.947C16.2967 28.8413 16.2739 28.7153 16.2906 28.5853L16.3043 28.4797C15.9249 28.1221 15.5759 27.3237 15.7307 26.4825L15.7459 26.3932L15.799 26.3424C15.8066 26.3342 15.8703 26.2773 15.9644 26.2042L15.6973 26.1494C15.5972 26.125 15.5304 26.001 15.5456 25.869C15.5623 25.7349 15.6564 25.6394 15.755 25.6658L16.3908 25.7999L16.4484 22.8012L17.3953 21.4603L17.9855 23.1242L17.3619 26.0092L17.9233 26.127C18.022 26.1473 18.0902 26.2713 18.0751 26.4074C18.0599 26.5272 17.984 26.6105 17.8945 26.6105C17.8854 26.6105 17.8748 26.6105 17.8657 26.6085L17.4089 26.509C17.415 26.5272 17.4241 26.5374 17.4302 26.5577C17.4787 26.6918 17.5865 26.7893 17.6502 26.83L20.4513 26.8889C20.5697 26.7345 20.864 26.3485 21.166 25.9401C20.4771 25.5906 20.2267 24.7942 20.1842 24.266C19.7988 24.0466 19.5333 23.7174 19.3861 23.2888C19.207 22.7585 19.2708 22.2282 19.3178 21.9702C18.9445 21.7874 18.5515 21.4542 18.1509 20.9219H13.9326C14.1132 21.572 14.2664 22.277 14.2664 22.9779V30.2167Z" fill="#FFDD2D"/>
<path d="M18.123 33.3356C18.0547 33.3275 17.997 33.3982 17.9925 33.4871C17.9879 33.58 18.0395 33.6587 18.1094 33.6608C18.1762 33.6688 18.2354 33.6002 18.2415 33.5093C18.2415 33.4204 18.1929 33.3376 18.123 33.3356Z" fill="#333333"/>
<path d="M26.2871 44.3305L25.5937 43.975L25.7849 43.016L25.9958 41.9697C25.9958 41.9697 24.7667 42.8616 23.0354 43.5321C22.5437 43.721 22.172 43.8064 22.172 43.8064V44.5174C22.172 44.5174 21.2464 44.7328 20.3101 44.7328H20.2995H20.2859H20.2677H20.257C19.3208 44.7328 18.3952 44.5174 18.3952 44.5174V43.8064C18.3952 43.8064 18.0219 43.721 17.5318 43.5321C15.8005 42.8616 14.5729 41.9697 14.5729 41.9697L14.7808 43.016L14.9765 43.975L14.2816 44.3305L13.5107 44.7165C14.3954 45.2874 15.6199 46.1204 16.7413 46.5308L16.4772 47.4979C16.4772 47.4979 17.899 48.3654 20.2677 48.3735V48.3756H20.2752H20.2859H20.295H20.301V48.3735C22.6727 48.3654 24.093 47.4979 24.093 47.4979L23.8274 46.5308C24.9488 46.1204 26.1763 45.2874 27.0564 44.7165L26.2871 44.3305ZM14.3332 44.7816L15.4742 44.2736L15.1374 42.8007C15.6396 43.1826 16.767 43.7556 17.4195 44.0217L16.8687 46.0473C15.8612 45.6755 15.0221 45.2427 14.3332 44.7816ZM20.2859 47.8656C18.9612 47.8656 17.4484 47.4573 17.0038 47.246L17.6805 44.7937C18.2419 45.0132 19.4103 45.2468 20.2585 45.2387H20.2601H20.2859H20.3086H20.3117C21.1599 45.2468 22.3252 45.0132 22.8897 44.7937L23.5649 47.246C23.1203 47.4593 21.609 47.8656 20.2859 47.8656ZM23.7 46.0473L23.1507 44.0217C23.8047 43.7556 24.9291 43.1826 25.4328 42.8007L25.0975 44.2736L26.237 44.7816C25.5466 45.2427 24.7121 45.6755 23.7 46.0473Z" fill="#333333"/>
<path d="M20.2842 6.05283C21.6954 6.05283 22.8243 6.67859 23.448 7.34701C23.448 7.34701 23.6331 5.85373 24.2659 4.53518L23.1293 4.70787L22.5345 3.01549L21.3919 3.80378L20.2842 2.33691L19.1796 3.80378L18.0355 3.01549L17.4422 4.70787L16.3057 4.53518C16.9384 5.85373 17.1235 7.34701 17.1235 7.34701C17.7487 6.67859 18.8746 6.05283 20.2842 6.05283ZM17.3906 5.30112L17.7062 5.34581L17.8428 4.96183L18.2403 3.82409L18.9778 4.33404L19.263 4.52908L19.4906 4.2284L20.2858 3.17193L21.0824 4.2284L21.31 4.52908L21.5953 4.33404L22.3282 3.82409L22.7303 4.96183L22.8638 5.34581L23.1794 5.30112L23.4798 5.25236C23.3418 5.66885 23.2401 6.06299 23.1673 6.39009C22.3722 5.79684 21.3373 5.45959 20.2827 5.45959C19.2327 5.45959 18.1994 5.79684 17.4012 6.39009C17.3269 6.06299 17.2267 5.66682 17.0886 5.25236L17.3906 5.30112Z" fill="#333333"/>
<path d="M36.8418 25.8691C38.6672 25.8691 39.2772 23.3824 39.303 23.2767L39.5063 22.4011L38.822 22.4295H38.819C38.5777 22.4295 36.5641 22.3584 35.1363 19.9285L35.0012 19.703C34.068 18.1142 33.1834 16.6047 31.6023 15.916C31.6478 15.8611 31.713 15.7921 31.8026 15.7148C32.6417 14.9753 33.1303 14.0773 33.2532 13.0351C33.4322 11.4666 32.6857 10.2172 32.6523 10.1664L32.144 9.32526L31.8269 10.3228C31.8056 10.3858 31.2715 11.9827 30.1486 11.9827H30.0652C29.9878 11.9766 29.915 11.9725 29.8421 11.9644C29.8816 11.2513 29.7845 10.1481 29.0379 9.11397C28.1411 7.86855 27.0395 7.68164 26.4629 7.68164C26.1549 7.68164 25.95 7.73243 25.9288 7.7365L25.161 7.93966L25.6344 8.77468C26.0062 9.41872 26.343 10.6072 25.944 11.2289C25.8165 11.426 25.554 11.5865 25.3021 11.747C24.7847 12.066 24.0791 12.5089 24.0791 13.6385C24.0791 14.3699 24.5025 15.1338 25.2702 15.7839C27.5433 17.6978 28.9453 19.6949 29.5508 21.8992C30.487 25.2901 29.2655 27.2242 28.0789 28.2421L27.5463 28.7013L28.0122 29.2742C28.0744 29.3473 28.6449 30.0198 29.4871 30.1173C29.6464 30.1316 29.7996 30.1437 29.9423 30.1437C30.4825 30.1437 30.9422 30.03 31.3155 29.8776C31.2123 30.1194 31.0864 30.3652 30.927 30.6131C30.2488 31.6655 29.4142 32.1449 28.214 32.1693L27.7679 32.1795L27.733 32.7788C27.7284 32.8987 27.695 34.01 28.481 34.9547C28.6009 35.101 28.7466 35.2209 28.8983 35.3204C28.3657 35.9624 27.824 37.0799 27.7193 38.9957C27.6313 40.5946 27.346 41.1858 27.343 41.1919L26.8498 42.1996L27.7405 42.2159C29.2124 42.2159 30.3398 41.6714 31.1213 40.5946C31.5826 39.9567 31.8466 39.2375 32.0029 38.5995C32.2593 38.8921 32.5901 39.1481 33.021 39.2842C33.1849 39.335 33.364 39.3634 33.5567 39.3634C33.9724 39.3634 34.3199 39.2456 34.3594 39.2334L34.9284 39.0303L34.6765 38.3192C34.6583 38.2623 34.1833 36.8361 34.6947 34.8003C34.9147 33.9206 35.027 33.1323 35.0816 32.5188C35.4397 32.7687 35.9192 32.9759 36.5398 32.9779C37.948 32.9779 38.5686 31.57 38.5974 31.5111L38.8751 30.865L38.3607 30.5805C36.6825 29.648 36.3107 27.143 36.2364 25.7858C36.3881 25.8244 36.5611 25.861 36.7568 25.8691H36.8418ZM38.1725 31.1799C38.1725 31.1799 37.6809 32.3237 36.5535 32.3237H36.5398C35.1863 32.3136 34.6401 31.2083 34.6401 31.2083C34.6401 31.2083 34.719 32.6468 34.2304 34.587C33.6432 36.9254 34.2349 38.5975 34.2349 38.5975C34.2349 38.5975 33.9193 38.7113 33.5552 38.7113C33.4156 38.7113 33.2699 38.693 33.1333 38.6442C32.0029 38.2846 31.7206 36.9072 31.7206 36.9072C31.7206 36.9072 31.8253 41.5617 27.7724 41.5617H27.7405C27.7405 41.5617 28.0971 40.9116 28.2033 39.0404C28.3961 35.5866 30.1426 35.1132 30.1426 35.1132C30.1426 35.1132 29.2109 34.9568 28.8073 34.4712C28.176 33.7053 28.22 32.8194 28.22 32.8194C29.6464 32.793 30.5796 32.1429 31.2912 31.0397C32.062 29.8451 32.1895 28.559 32.1895 28.559C32.1895 28.559 31.4232 29.4895 29.9407 29.4895C29.8103 29.4895 29.6707 29.4814 29.528 29.4631C28.827 29.388 28.3414 28.7907 28.3414 28.7907C29.8846 27.466 30.968 25.154 30.0075 21.6717C29.2382 18.8822 27.39 16.7977 25.5297 15.2272C24.9106 14.7092 24.5662 14.1342 24.5662 13.6385C24.5662 12.4723 25.8044 12.4357 26.3127 11.6515C26.8984 10.7413 26.5312 9.26431 26.0229 8.37647C26.0229 8.37647 26.1943 8.32974 26.4644 8.32974C27.0001 8.32974 27.9272 8.51056 28.6889 9.56703C29.701 10.9689 29.2807 12.4947 29.2807 12.4947L29.5523 12.5658C29.7147 12.6125 29.8755 12.6206 30.0424 12.6308C30.0788 12.6308 30.1152 12.6328 30.1517 12.6328C31.622 12.6328 32.279 10.5747 32.279 10.5747C32.279 10.5747 33.8419 13.1489 31.5416 15.1643C31.1455 15.5097 30.9711 15.8286 31.0166 16.1699L31.053 16.3934L31.2169 16.432C32.8845 17.0375 33.7281 18.5775 34.7584 20.3288C36.3229 22.9923 38.5367 23.0776 38.8098 23.0776H38.8387C38.8387 23.0776 38.3334 25.2129 36.8448 25.2129C36.8206 25.2129 36.7993 25.2129 36.7735 25.2109C36.0892 25.1784 35.7387 24.8269 35.7387 24.8269C35.7387 24.8269 35.4701 29.6765 38.1725 31.1799Z" fill="#333333"/>
<path d="M33.6346 16.1822C34.3159 16.6677 34.712 17.3179 35.0594 17.8949C35.4009 18.4576 35.7256 19.0001 36.2324 19.2256C36.4129 19.3089 36.6041 19.3475 36.7984 19.3475C37.5601 19.3475 38.3249 18.7238 38.6147 17.8603L38.906 16.9948L38.2004 16.9379C38.167 16.9359 37.2597 16.8262 36.2491 15.4426C35.8333 14.8758 35.3311 14.5771 34.7894 14.5771C34.1278 14.5771 33.6377 15.0201 33.583 15.0647L32.9336 15.6763L33.6346 16.1822ZM34.7909 15.2313C35.1308 15.2313 35.5268 15.3858 35.9016 15.9038C37.0776 17.5027 38.1716 17.5921 38.1716 17.5921C37.9728 18.1813 37.3962 18.6994 36.7999 18.6994C36.6618 18.6994 36.5237 18.671 36.3856 18.608C35.5769 18.2423 35.2871 16.6169 33.8653 15.6052C33.8653 15.6052 34.2628 15.2313 34.7909 15.2313Z" fill="#333333"/>
<path d="M33.9556 24.8164V24.8489C33.5459 20.424 31.1454 17.2282 28.4749 15.2839C28.2275 15.1071 27.9999 14.9568 27.7784 14.8125C28.5917 14.9811 29.9012 15.0015 30.9118 13.8271C30.9118 13.8271 29.3656 15.3509 26.1973 13.9673C27.0743 14.7292 28.7783 15.804 30.3336 17.5451C34.2227 22.1204 31.4398 26.584 31.4398 26.584C32.8373 24.6315 32.895 22.5389 32.4838 20.8303C33.2197 22.4699 33.6901 24.4609 33.6173 26.9151C33.5095 30.4319 32.0665 33.4734 30.5476 35.9174C29.8177 37.1039 29.6539 38.5606 29.6539 38.5606C29.6539 38.5606 29.9482 37.2746 30.7934 35.952C32.4216 33.4002 33.813 30.7489 33.9951 26.9294C34.1635 27.6222 34.857 29.5502 35.9571 30.2755C35.9601 30.2775 34.5778 29.1622 33.9556 24.8164Z" fill="#333333"/>
<path d="M13.2294 41.1919C13.2279 41.1858 12.9457 40.5946 12.8546 38.9957C12.7484 37.0798 12.2082 35.9624 11.6741 35.3204C11.8289 35.2229 11.9715 35.103 12.0914 34.9547C12.8759 34.01 12.8425 32.8987 12.8379 32.7788L12.8076 32.1795L12.3584 32.1693C11.1612 32.1429 10.3251 31.6634 9.64688 30.613C9.48907 30.3652 9.36161 30.1194 9.25843 29.8776C9.6317 30.03 10.0884 30.1437 10.6301 30.1437C10.7758 30.1437 10.926 30.1315 11.0854 30.1173C11.9275 30.0198 12.498 29.3493 12.5618 29.2742L13.0276 28.7012L12.495 28.2421C11.3039 27.2222 10.0869 25.288 11.0216 21.8992C11.6271 19.6949 13.0276 17.6978 15.3037 15.7839C16.0715 15.1338 16.4918 14.3699 16.4918 13.6385C16.4918 12.5089 15.7877 12.0639 15.2703 11.747C15.0184 11.5865 14.7559 11.426 14.6284 11.2289C14.2279 10.6093 14.5662 9.41871 14.9365 8.77468L15.4129 7.93966L14.6421 7.7365C14.6193 7.73243 14.4175 7.68164 14.108 7.68164C13.5314 7.68164 12.4328 7.86855 11.5345 9.11396C10.7864 10.1501 10.6878 11.2533 10.7257 11.9644C10.6529 11.9725 10.5801 11.9766 10.5042 11.9827H10.4223C9.29636 11.9827 8.76376 10.3858 8.74252 10.3228L8.42538 9.32526L7.91251 10.1664C7.88368 10.2172 7.13409 11.4687 7.31618 13.0351C7.43757 14.0773 7.92616 14.9753 8.76528 15.7148C8.85632 15.792 8.92005 15.8611 8.96557 15.916C7.38598 16.6047 6.50286 18.1163 5.56967 19.705L5.43462 19.9305C4.00828 22.3604 1.99016 22.4315 1.7489 22.4315L1.06152 22.4031L1.27092 23.2787C1.2952 23.3844 1.90367 25.8711 3.7306 25.8711L3.81861 25.8671C4.01132 25.8589 4.1843 25.8244 4.33907 25.7838C4.2632 27.1389 3.89144 29.6439 2.2117 30.5785L1.69882 30.8629L1.97651 31.509C2.00382 31.5679 2.62595 32.9759 4.03711 32.9759C4.65317 32.9738 5.13266 32.7666 5.49228 32.5167C5.54691 33.1303 5.65919 33.9186 5.87921 34.7983C6.39057 36.834 5.91411 38.2602 5.89591 38.3171L5.64402 39.0282L6.21456 39.2314C6.25249 39.2436 6.60301 39.3614 7.01725 39.3614C7.21148 39.3614 7.39053 39.333 7.55137 39.2822C7.98382 39.146 8.31765 38.89 8.57105 38.5975C8.72582 39.2354 8.99137 39.9546 9.45113 40.5926C10.2341 41.6694 11.36 42.2139 12.8319 42.2139L13.7241 42.1976L13.2294 41.1919ZM12.7985 41.5637C8.74555 41.5637 8.84873 36.9092 8.84873 36.9092C8.84873 36.9092 8.5665 38.2866 7.43605 38.6462C7.301 38.695 7.15685 38.7133 7.01573 38.7133C6.65156 38.7133 6.33746 38.5995 6.33746 38.5995C6.33746 38.5995 6.92621 36.9275 6.33898 34.589C5.85342 32.6488 5.93232 31.2104 5.93232 31.2104C5.93232 31.2104 5.38758 32.3156 4.03256 32.3257H4.0189C2.89149 32.3257 2.39986 31.1819 2.39986 31.1819C5.1008 29.6805 4.83526 24.833 4.83526 24.833C4.83526 24.833 4.48474 25.1824 3.79888 25.2169C3.7746 25.219 3.75184 25.219 3.72757 25.219C2.2375 25.219 1.73372 23.0837 1.73372 23.0837H1.76407C2.03872 23.0837 4.24955 22.9984 5.81397 20.3349C6.84427 18.5836 7.68945 17.0456 9.35402 16.4381L9.52093 16.3995L9.55735 16.176C9.60287 15.8347 9.42989 15.5157 9.03385 15.1704C6.7335 13.1529 8.29641 10.5808 8.29641 10.5808C8.29641 10.5808 8.9504 12.6369 10.4238 12.6369C10.4602 12.6369 10.4936 12.6348 10.5315 12.6348C10.6969 12.6227 10.8608 12.6145 11.0216 12.5678L11.2932 12.4967C11.2932 12.4967 10.8729 10.9709 11.8865 9.56906C12.6483 8.51056 13.5754 8.33177 14.1095 8.33177C14.3811 8.33177 14.5495 8.3785 14.5495 8.3785C14.0427 9.26837 13.6755 10.7434 14.2612 11.6535C14.768 12.4357 16.0047 12.4743 16.0047 13.6405C16.0047 14.1342 15.6603 14.7112 15.0412 15.2293C13.1793 16.7998 11.3312 18.8842 10.5634 21.6737C9.60439 25.156 10.6863 27.466 12.2325 28.7927C12.2325 28.7927 11.7469 29.39 11.0444 29.4652C10.9018 29.4834 10.7637 29.4916 10.6301 29.4916C9.14917 29.4916 8.3829 28.5611 8.3829 28.5611C8.3829 28.5611 8.51036 29.8471 9.27663 31.0417C9.99284 32.1449 10.926 32.7951 12.3524 32.8215C12.3524 32.8215 12.3979 33.7073 11.7667 34.4732C11.3615 34.9567 10.4298 35.1152 10.4298 35.1152C10.4298 35.1152 12.1779 35.5886 12.3691 39.0424C12.4738 40.9136 12.8273 41.5637 12.8273 41.5637H12.7985Z" fill="#333333"/>
<path d="M3.76965 19.3504C3.96539 19.3504 4.15658 19.3118 4.33715 19.2285C4.84699 19.0029 5.17019 18.4605 5.5116 17.8977C5.8606 17.3207 6.2536 16.6706 6.93491 16.185L7.63594 15.6812L6.98498 15.0696C6.93036 15.0229 6.44176 14.582 5.7817 14.582C5.23848 14.582 4.7347 14.8787 4.32046 15.4475C3.30988 16.8291 2.404 16.9408 2.37062 16.9428L1.66504 16.9977L1.95486 17.8652C2.2462 18.7246 3.00944 19.3504 3.76965 19.3504ZM4.66794 15.9067C5.04425 15.3886 5.44029 15.2342 5.7817 15.2342C6.30671 15.2342 6.70427 15.608 6.70427 15.608C5.284 16.6218 4.99266 18.2451 4.18086 18.6108C4.04733 18.6738 3.90773 18.7023 3.76965 18.7023C3.17332 18.7023 2.59671 18.1862 2.39945 17.595C2.39945 17.593 3.49197 17.5036 4.66794 15.9067Z" fill="#333333"/>
<path d="M6.95558 26.9171C6.87971 24.4628 7.3501 22.4718 8.08754 20.8322C7.67633 22.5409 7.73248 24.6335 9.1315 26.5859C9.1315 26.5859 6.34862 22.1224 10.2392 17.547C11.796 15.8059 13.4985 14.7312 14.3741 13.9693C11.2073 15.3529 9.66107 13.8291 9.66107 13.8291C10.6716 15.0034 11.9811 14.9831 12.7945 14.8124C12.5744 14.9567 12.3438 15.107 12.0995 15.2838C9.42587 17.2281 7.02689 20.4239 6.61568 24.8488V24.8143C5.99507 29.16 4.61426 30.2754 4.61426 30.2754C5.71284 29.5501 6.40477 27.6241 6.5732 26.9293C6.7568 30.7488 8.14824 33.4001 9.77639 35.9519C10.6216 37.2745 10.919 38.5605 10.919 38.5605C10.919 38.5605 10.7536 37.1038 10.0207 35.9174C8.50482 33.4773 7.06179 30.4339 6.95558 26.9171Z" fill="#333333"/>
<path d="M19.3711 17.9619V18.8396C19.5972 18.4719 20.0342 18.547 20.0342 18.547V19.8128C20.0342 19.8128 20.019 20.4344 19.8536 20.7047H20.327H20.799C20.6366 20.4365 20.6199 19.8128 20.6199 19.8128V18.547C20.6199 18.547 21.0569 18.4719 21.2815 18.8396V17.9619H20.327H19.3711Z" fill="#333333"/>
<path d="M18.9643 12.7581C19.2665 13.0793 19.4411 13.1322 19.4472 13.1383L19.5656 13.2115V12.384L18.4541 11.7578C18.4541 11.7598 18.4647 12.2376 18.9643 12.7581Z" fill="#333333"/>
<path d="M21.6076 12.7581C22.1102 12.2376 22.1193 11.7578 22.1193 11.7578L21.0078 12.384V13.2115L21.1247 13.1383C21.1323 13.1322 21.3054 13.0793 21.6076 12.7581Z" fill="#333333"/>
<path d="M23.6065 9.39283C23.6065 8.13929 22.03 7.01172 20.2895 7.01172H20.288H20.2835H20.2789C18.5385 7.01172 16.9619 8.13929 16.9619 9.39283L16.9968 9.70164L17.6918 15.0429L16.9938 15.5853L15.1881 16.9974H15.1942C15.1942 16.9974 14.7875 17.2757 14.5993 17.4484C13.912 18.0884 13.7663 19.0209 14.1654 19.4069C14.264 18.6471 14.7132 17.8507 15.5538 17.8507C16.1592 17.8507 16.6205 18.2692 16.9938 18.897C17.0894 19.0554 17.1804 19.2241 17.2654 19.4069C17.3701 19.6365 17.4748 19.8376 17.5795 20.0327H12.9287C13.2701 20.953 13.5948 21.9282 13.5948 22.9867V36.7695C13.5948 40.1055 15.5113 41.6983 17.584 41.6983C19.1864 41.6983 19.4019 41.6008 20.2865 42.7792C21.1666 41.5988 21.382 41.6983 22.9859 41.6983C25.0602 41.6983 26.9736 40.1055 26.9736 36.7695V22.9867C26.9736 21.9282 27.2983 20.953 27.6412 20.0327H22.9889C23.0921 19.8397 23.1968 19.6365 23.3015 19.4069C23.388 19.2241 23.4775 19.0554 23.5716 18.897C23.9479 18.2671 24.4077 17.8507 25.0131 17.8507C25.8538 17.8507 26.3014 18.645 26.4015 19.4069C26.8006 19.0209 26.6565 18.0884 25.9645 17.4484C25.7794 17.2757 25.3728 16.9974 25.3728 16.9974H25.3788L23.5731 15.5853L22.8782 15.0429L23.5731 9.70164L23.6065 9.39283ZM17.6463 10.0145L20.0892 11.1238V16.2619L18.2911 14.9921L17.6463 10.0145ZM18.1515 20.9286C18.5521 21.463 18.9451 21.7941 19.3184 21.977C19.2698 22.235 19.2061 22.7673 19.3867 23.2976C19.5339 23.7242 19.8009 24.0533 20.1848 24.2728C20.2273 24.801 20.4762 25.5954 21.1666 25.9468C20.8646 26.3552 20.5702 26.7392 20.4504 26.8956L17.6508 26.8367C17.5871 26.7941 17.4793 26.6986 17.4308 26.5624C17.4247 26.5442 17.4156 26.534 17.4111 26.5137L17.8678 26.6132C17.8784 26.6153 17.8875 26.6153 17.8966 26.6153C17.9846 26.6153 18.062 26.534 18.0772 26.4121C18.0924 26.276 18.0241 26.152 17.9254 26.1317L17.364 26.0139L17.9877 23.131L17.3974 21.467L16.4506 22.8079L16.3929 25.8067L15.7571 25.6726C15.6585 25.6462 15.5644 25.7437 15.5477 25.8757C15.5325 26.0078 15.5993 26.1317 15.6994 26.1561L15.9665 26.211C15.8709 26.2841 15.8087 26.341 15.8011 26.3491L15.7465 26.3999L15.7313 26.4893C15.5765 27.3304 15.9271 28.1289 16.3049 28.4864L16.2912 28.5921C16.2761 28.7221 16.2973 28.8481 16.355 28.9537C16.4096 29.0614 16.4946 29.1264 16.5886 29.1488C16.6084 29.1528 16.6296 29.1548 16.6478 29.1548C16.8117 29.1548 16.9543 29.0025 16.9953 28.781C17.1364 28.8034 17.2654 28.8074 17.3534 28.8074H17.4277L21.1013 29.6953L21.1635 29.6404C21.4564 29.3661 22.5717 28.2772 22.9374 27.9176C23.0375 28.0334 23.1498 28.139 23.2864 28.2264C23.168 28.7587 23.1604 29.5774 23.6293 30.2235H14.267V22.9887C14.267 22.2878 14.1138 21.5828 13.9332 20.9327H18.1515V20.9286ZM22.6915 27.5478C22.3198 27.9135 21.3638 28.8481 21.0179 29.1731L17.6796 28.3706C17.6872 28.33 17.6948 28.2914 17.7024 28.2508C17.7464 28.0191 17.7904 27.7022 17.7934 27.3304L20.5991 27.3914L20.6522 27.3182C20.6947 27.2613 21.5839 26.1114 22.0376 25.4491C22.1453 25.6299 22.2803 25.8026 22.4563 25.955C22.3957 26.3938 22.4214 27.0196 22.6915 27.5478ZM17.103 26.7737C17.1819 26.9952 17.3246 27.1435 17.4232 27.2268C17.4202 27.434 17.405 27.7571 17.364 28.0415C17.3549 28.1045 17.3428 28.1634 17.3291 28.2223C17.3215 28.2589 17.3139 28.2894 17.3079 28.3137C17.1607 28.3137 16.8709 28.2894 16.6342 28.1735C16.3717 28.0435 15.9802 27.3995 16.0712 26.6904C16.185 26.597 16.4475 26.3999 16.6933 26.3999C16.883 26.3979 17.012 26.5177 17.103 26.7737ZM16.7555 25.8818L16.8117 23.003L17.2942 22.3183L17.5977 23.1675L16.9998 25.9306L16.7555 25.8818ZM22.6612 40.8064C22.4791 40.8064 22.3107 40.8105 22.1589 40.8186L22.5565 39.1628C22.6187 38.9333 22.3046 38.6387 22.1756 38.3806C22.3714 38.5452 22.8782 38.9048 23.1225 39.0491C23.0967 39.1019 22.6612 40.8064 22.6612 40.8064ZM23.9085 38.9251L23.649 40.7374C23.4836 40.7678 23.3076 40.7841 23.127 40.7943L23.4002 39.0511C23.4821 38.533 22.4427 38.3725 21.9298 37.3546C21.6795 37.7325 21.2075 37.8443 20.7341 37.8443C20.3017 37.8443 19.8692 37.7508 19.6067 37.6817C19.5399 37.6675 19.4762 37.6574 19.414 37.6574C19.2623 37.6574 19.1242 37.7203 19.0286 37.9357L18.9527 38.1064L17.537 37.6594L17.185 38.4396C17.1349 38.5655 17.1319 38.6732 17.2123 38.791L17.3079 38.9312C17.2426 39.2075 16.9483 39.624 16.9483 39.624L16.7373 39.2725C16.5704 39.0226 16.5977 38.5676 16.7722 38.145L17.3337 36.8752L18.5324 37.1068L18.3458 36.5379C18.0954 35.7862 18.4763 34.8293 18.5172 34.2787C18.5036 34.4453 18.3898 34.4819 18.2562 34.4819C18.1348 34.4819 17.9998 34.4514 17.9103 34.4514C17.8754 34.4514 17.845 34.4555 17.8283 34.4717L17.5036 34.7358L17.2472 34.4331C17.2168 34.3742 17.2062 34.2381 17.2821 34.1365L17.8754 33.2466L17.1743 32.1516L18.1561 32.8118L18.455 32.3263C18.537 32.434 18.5021 32.7164 18.5021 32.7164C18.8086 32.7265 19.6674 33.3624 19.7129 34.8455C19.716 34.8902 19.716 34.941 19.716 34.9898C19.716 34.9898 19.7235 35.0081 19.7387 35.0385C19.7994 35.1503 19.9663 35.4368 20.1788 35.4632L21.5353 35.642H21.5414C21.6901 35.642 21.986 35.4083 22.3653 35.4083C22.5717 35.4083 22.8023 35.4794 23.0481 35.6867C23.0481 35.6867 23.171 35.5566 23.3713 35.5424C23.3865 35.5404 23.4032 35.5404 23.4184 35.5404C24.0268 35.5404 24.2787 36.2758 24.605 36.8874C24.8508 37.3526 25.1785 38.0434 25.1785 38.0434C25.0571 38.2364 24.9449 38.342 24.7567 38.342C24.7051 38.342 24.6459 38.3359 24.5822 38.3197C23.9297 38.1592 23.8356 36.3632 23.4639 36.221C23.4442 36.2129 23.4229 36.2108 23.4047 36.2108C23.2848 36.2108 23.2317 36.353 23.2317 36.353C23.4017 36.9646 23.303 37.2124 23.4851 37.6838C23.6217 38.0332 23.8645 38.3217 23.9646 38.4578C23.9646 38.4619 23.9373 38.726 23.9085 38.9251ZM16.6235 37.2104L16.6857 37.4197C16.6448 37.6025 16.1744 37.8626 16.1744 37.8626L16.0727 37.5659C15.965 37.249 15.9878 36.7147 16.3155 36.3876L17.0772 35.7659L17.8845 35.9955C17.8693 36.3388 18.0226 36.5948 18.0226 36.5948L17.1759 36.3774L16.6691 36.8467C16.5841 36.926 16.578 37.0743 16.6235 37.2104ZM24.0359 40.6378L24.2681 39.0166C24.2802 38.9211 24.2954 38.8093 24.306 38.7159C24.3713 38.7524 24.4411 38.7829 24.517 38.8012C24.6034 38.8235 24.6839 38.8337 24.7567 38.8337C25.1118 38.8337 25.3181 38.5838 25.4562 38.3705L25.6353 38.0921L25.4896 37.7874C25.4759 37.7569 25.1543 37.0743 24.9054 36.607C24.8568 36.5156 24.8098 36.4241 24.7628 36.3246C24.4805 35.7598 24.127 35.0507 23.4184 35.0507L23.3546 35.0528C23.2378 35.0629 23.1377 35.0934 23.0572 35.134C22.8342 34.9939 22.6051 34.9227 22.3668 34.9227C22.074 34.9227 21.8266 35.0304 21.6628 35.1056C21.6157 35.1239 21.5732 35.1442 21.5399 35.1523L20.2152 34.9776C20.1985 34.9735 20.1439 34.9309 20.0786 34.8252V34.8171L20.3654 34.6627C20.285 33.3848 19.3685 32.5985 18.8571 32.3324C18.8344 32.2044 18.7888 32.0764 18.7084 31.9728L18.4231 31.6111L18.1728 32.0134L18.0499 32.2186L16.1956 31.1987L17.402 33.2263L16.9255 34.1913C16.751 34.4392 16.9437 34.6871 16.9437 34.6871L17.4353 35.1401L17.9452 34.8862C17.9634 34.8862 17.9786 34.8923 17.9952 34.8943C17.971 34.9979 17.9391 35.4042 17.9179 35.518L17.0332 35.2844L16.1031 35.9873C15.6251 36.4567 15.5598 37.2348 15.7374 37.7671L15.8406 38.0698L15.9878 38.4964L16.3125 38.3156C16.317 38.3136 16.3216 38.3116 16.3246 38.3075C16.2078 38.8073 16.2548 39.2827 16.4642 39.5956L16.6615 39.9288L16.924 40.3737L17.2123 39.9592C17.2973 39.8455 17.5719 39.433 17.6569 39.0795L17.7191 38.8093L17.578 38.6021L17.5552 38.5655L17.713 38.2161L18.8677 38.5797L19.1272 38.659L19.2653 38.3542L19.3412 38.1876C19.3548 38.1531 19.3594 38.147 19.4125 38.147C19.4535 38.147 19.4944 38.1531 19.5384 38.1653C19.9739 38.275 20.376 38.3298 20.7326 38.3298C21.0786 38.3298 21.2849 38.3116 21.5323 38.2019C21.5323 38.2019 22.1529 39.1445 22.1741 39.1811L21.7948 40.7496L21.7781 40.8451C21.0588 40.9223 20.7083 41.1335 20.285 41.7004C19.6704 40.8837 19.2349 40.7983 17.5825 40.7983C15.6054 40.7983 14.2655 39.2461 14.2655 36.7675V30.707H26.3014L26.3044 36.7675C26.3059 38.7788 25.4243 40.1807 24.0359 40.6378ZM26.6383 20.9286C26.4546 21.5788 26.3014 22.2837 26.3014 22.9847L26.3029 27.5072C25.5973 27.3487 25.5139 26.3308 25.5108 26.2861L25.4972 26.0789L25.3454 26.0606C25.0389 26.022 24.8356 25.8473 24.6641 25.6238C24.3182 25.1606 24.3167 24.4089 24.3182 24.4028C24.3136 24.4414 23.9373 25.1464 24.3743 25.9164C24.5579 26.2414 24.8235 26.4405 25.1679 26.5198C25.2483 27.0846 25.5624 27.881 26.3029 28.0029V30.2174H24.2211C23.2606 29.5023 23.6672 28.2426 23.6869 28.1898L23.7689 27.9501L23.5853 27.8566C22.5459 27.3406 22.8311 25.9509 22.8463 25.892L22.8888 25.6888L22.7477 25.5994C21.8888 25.0671 22.0057 23.6307 22.0163 23.5718C21.7523 23.8583 21.6567 24.4434 21.8388 25.0163C21.7401 25.1667 21.6081 25.3495 21.464 25.5486C20.5748 25.2459 20.5475 24.1509 20.5475 24.1001L20.546 23.9314L20.4291 23.8705C20.0816 23.6978 19.8434 23.4398 19.7266 23.0924C19.5946 22.7084 19.6416 22.3061 19.678 22.1131C19.7797 22.1436 19.8814 22.1659 19.9785 22.1761C20.0786 22.1903 20.1818 22.1984 20.285 22.1984H20.291H20.2986C20.4018 22.1984 20.5035 22.1903 20.6036 22.1761C21.1575 22.1029 21.7781 21.784 22.4245 20.9266H26.6383V20.9286ZM23.3941 16.3574L24.2165 16.9974H24.2287L24.435 17.1579C23.9707 17.3306 23.6156 17.6414 23.3182 18.0498C23.3076 18.0619 23.297 18.0782 23.2864 18.0924C23.2181 18.1899 23.1498 18.2956 23.0861 18.4033C23.0739 18.4236 23.0618 18.4459 23.0481 18.4683C22.9844 18.578 22.9252 18.6897 22.8676 18.8076C22.8585 18.8279 22.8478 18.8482 22.8372 18.8665C22.7689 19.0026 22.7037 19.1489 22.6384 19.2992C22.0527 20.6503 21.118 21.4569 20.2865 21.4589C19.4565 21.4569 18.5218 20.6503 17.9361 19.2992C17.8723 19.153 17.8086 19.0107 17.7403 18.8726C17.7267 18.8462 17.7145 18.8198 17.7024 18.7974C17.6447 18.6857 17.5871 18.576 17.5279 18.4723C17.5127 18.4439 17.4991 18.4216 17.4839 18.3972C17.4202 18.2936 17.3549 18.1899 17.2897 18.0945C17.276 18.0802 17.2669 18.0619 17.2532 18.0457C16.9543 17.6373 16.6008 17.3285 16.1349 17.1579L16.3443 16.9974H16.3534L17.1759 16.3574L18.021 15.7093L20.2789 17.3549L20.2835 17.3488L20.2895 17.3549L22.5474 15.7093L23.3941 16.3574ZM22.2803 14.9941L20.4807 16.2639V11.1238L22.9222 10.0145L22.2803 14.9941ZM20.285 10.559L17.6083 9.14294C17.8359 8.42169 18.886 7.80813 20.285 7.8061C21.6855 7.80813 22.7355 8.42169 22.9616 9.14294L20.285 10.559Z" fill="#333333"/>
</svg>
