<svg width="1537" height="962" viewBox="0 0 1537 962" fill="#9ad351" xmlns="http://www.w3.org/2000/svg">
<g opacity="0.2">
<mask id="path-1-outside-1_4136_26147" maskUnits="userSpaceOnUse" x="-0.337606" y="-4.74406" width="1539.32" height="968.758" fill="black">
<rect fill="white" x="-0.337606" y="-4.74406" width="1539.32" height="968.758"/>
<path d="M136.044 959.896L2.14768 686.641L112.026 632.676C140.813 618.537 168.87 612.022 196.199 613.129C223.657 613.85 248.463 621.524 270.618 636.15C292.772 650.776 310.416 671.492 323.551 698.297C336.686 725.102 342.25 751.751 340.244 778.243C338.238 804.735 329.18 829.202 313.071 851.642C297.092 873.697 274.709 891.793 245.922 905.931L136.044 959.896ZM152.332 920.901L232.138 881.705C256.042 869.966 274.437 855.119 287.324 837.167C300.34 818.828 307.651 798.932 309.257 777.479C310.735 755.767 306.118 733.98 295.407 712.12C284.567 689.999 270.184 673.009 252.255 661.15C234.327 649.292 214.2 643.033 191.875 642.374C169.679 641.329 146.629 646.677 122.726 658.416L42.9194 697.612L152.332 920.901Z"/>
<path d="M405.984 639.892L548.634 569.832L560.684 594.425L418.035 664.485L405.984 639.892ZM470.852 764.465L633.164 684.748L645.406 709.731L454.565 803.46L320.668 530.204L505.726 439.316L517.968 464.299L361.44 541.176L470.852 764.465Z"/>
<path d="M788.025 642.592C767.977 652.439 747.106 658.653 725.412 661.236C703.848 663.432 685.503 661.787 670.378 656.3L670.656 628.558C684.757 633.256 701.369 634.945 720.492 633.625C739.746 631.918 758.239 626.709 775.974 617.999C792.938 609.668 805.669 600.833 814.166 591.493C822.793 581.767 827.763 572.061 829.076 562.376C830.646 552.565 829.263 543.235 824.928 534.387C819.699 523.717 812.407 516.643 803.05 513.167C793.951 509.564 783.625 508.339 772.073 509.493C760.393 510.386 747.94 512.305 734.714 515.249C721.488 518.193 708.199 521.007 694.845 523.691C681.364 526.114 668.273 527.055 655.571 526.513C643.126 525.845 631.651 522.602 621.147 516.783C610.772 510.578 602.014 500.188 594.873 485.615C588.242 472.082 585.655 458.016 587.111 443.417C588.697 428.432 595.157 413.959 606.492 399.997C617.7 385.775 634.741 373.047 657.616 361.812C672.781 354.364 688.9 349.192 705.976 346.294C722.924 343.137 738.644 342.68 753.137 344.926L754.784 372.691C739.393 370.564 724.25 370.898 709.356 373.693C694.72 376.361 681.361 380.661 669.281 386.594C653.089 394.547 640.807 403.323 632.437 412.923C624.067 422.523 619.161 432.359 617.718 442.43C616.405 452.116 618.044 461.643 622.635 471.011C627.863 481.681 635.027 488.818 644.127 492.42C653.483 495.897 663.938 497.058 675.49 495.905C687.299 494.625 699.817 492.513 713.043 489.569C726.269 486.625 739.494 484.004 752.717 481.707C766.198 479.283 779.161 478.406 791.606 479.074C804.181 479.356 815.591 482.469 825.839 488.414C836.343 494.233 845.102 504.299 852.116 518.612C858.619 531.885 861.078 546.013 859.492 560.999C857.779 575.724 851.19 590.26 839.726 604.608C828.391 618.57 811.157 631.231 788.025 642.592Z"/>
<path d="M949.664 560.3L815.768 287.044L844.298 273.032L978.194 546.288L949.664 560.3Z"/>
<path d="M1066 503.162L932.107 229.906L1033.12 180.296C1055.99 169.061 1077.5 163.178 1097.65 162.646C1117.67 161.854 1135.5 166.339 1151.12 176.1C1166.87 185.475 1179.6 200.051 1189.29 219.83C1198.73 239.088 1202.39 257.952 1200.28 276.424C1198.3 294.509 1190.93 311.364 1178.18 326.99C1165.3 342.356 1147.43 355.656 1124.55 366.891L1039.35 408.737L1045.57 389.216L1094.53 489.15L1066 503.162ZM1250.29 412.652L1132.31 347.583L1163.15 332.435L1281.52 397.315L1250.29 412.652ZM1046.71 391.559L1027.3 384.144L1111.73 342.677C1138.72 329.422 1156.22 313.401 1164.23 294.613C1172.5 275.699 1171.34 255.442 1160.76 233.842C1150.05 211.981 1134.69 198.537 1114.69 193.508C1094.94 188.354 1071.58 192.404 1044.59 205.658L960.156 247.126L966.184 227.215L1046.71 391.559Z"/>
<path d="M1296.03 202.758L1438.68 132.698L1450.73 157.291L1308.09 227.351L1296.03 202.758ZM1360.9 327.331L1523.21 247.614L1535.46 272.598L1344.61 366.326L1210.72 93.0707L1395.78 2.18241L1408.02 27.1658L1251.49 104.042L1360.9 327.331Z"/>
</mask>
<path d="M136.044 959.896L2.14768 686.641L112.026 632.676C140.813 618.537 168.87 612.022 196.199 613.129C223.657 613.85 248.463 621.524 270.618 636.15C292.772 650.776 310.416 671.492 323.551 698.297C336.686 725.102 342.25 751.751 340.244 778.243C338.238 804.735 329.18 829.202 313.071 851.642C297.092 873.697 274.709 891.793 245.922 905.931L136.044 959.896ZM152.332 920.901L232.138 881.705C256.042 869.966 274.437 855.119 287.324 837.167C300.34 818.828 307.651 798.932 309.257 777.479C310.735 755.767 306.118 733.98 295.407 712.12C284.567 689.999 270.184 673.009 252.255 661.15C234.327 649.292 214.2 643.033 191.875 642.374C169.679 641.329 146.629 646.677 122.726 658.416L42.9194 697.612L152.332 920.901Z" stroke="#9ad351" stroke-width="4" mask="url(#path-1-outside-1_4136_26147)"/>
<path d="M405.984 639.892L548.634 569.832L560.684 594.425L418.035 664.485L405.984 639.892ZM470.852 764.465L633.164 684.748L645.406 709.731L454.565 803.46L320.668 530.204L505.726 439.316L517.968 464.299L361.44 541.176L470.852 764.465Z" stroke="#9ad351" stroke-width="4" mask="url(#path-1-outside-1_4136_26147)"/>
<path d="M788.025 642.592C767.977 652.439 747.106 658.653 725.412 661.236C703.848 663.432 685.503 661.787 670.378 656.3L670.656 628.558C684.757 633.256 701.369 634.945 720.492 633.625C739.746 631.918 758.239 626.709 775.974 617.999C792.938 609.668 805.669 600.833 814.166 591.493C822.793 581.767 827.763 572.061 829.076 562.376C830.646 552.565 829.263 543.235 824.928 534.387C819.699 523.717 812.407 516.643 803.05 513.167C793.951 509.564 783.625 508.339 772.073 509.493C760.393 510.386 747.94 512.305 734.714 515.249C721.488 518.193 708.199 521.007 694.845 523.691C681.364 526.114 668.273 527.055 655.571 526.513C643.126 525.845 631.651 522.602 621.147 516.783C610.772 510.578 602.014 500.188 594.873 485.615C588.242 472.082 585.655 458.016 587.111 443.417C588.697 428.432 595.157 413.959 606.492 399.997C617.7 385.775 634.741 373.047 657.616 361.812C672.781 354.364 688.9 349.192 705.976 346.294C722.924 343.137 738.644 342.68 753.137 344.926L754.784 372.691C739.393 370.564 724.25 370.898 709.356 373.693C694.72 376.361 681.361 380.661 669.281 386.594C653.089 394.547 640.807 403.323 632.437 412.923C624.067 422.523 619.161 432.359 617.718 442.43C616.405 452.116 618.044 461.643 622.635 471.011C627.863 481.681 635.027 488.818 644.127 492.42C653.483 495.897 663.938 497.058 675.49 495.905C687.299 494.625 699.817 492.513 713.043 489.569C726.269 486.625 739.494 484.004 752.717 481.707C766.198 479.283 779.161 478.406 791.606 479.074C804.181 479.356 815.591 482.469 825.839 488.414C836.343 494.233 845.102 504.299 852.116 518.612C858.619 531.885 861.078 546.013 859.492 560.999C857.779 575.724 851.19 590.26 839.726 604.608C828.391 618.57 811.157 631.231 788.025 642.592Z" stroke="#9ad351" stroke-width="4" mask="url(#path-1-outside-1_4136_26147)"/>
<path d="M949.664 560.3L815.768 287.044L844.298 273.032L978.194 546.288L949.664 560.3Z" stroke="#9ad351" stroke-width="4" mask="url(#path-1-outside-1_4136_26147)"/>
<path d="M1066 503.162L932.107 229.906L1033.12 180.296C1055.99 169.061 1077.5 163.178 1097.65 162.646C1117.67 161.854 1135.5 166.339 1151.12 176.1C1166.87 185.475 1179.6 200.051 1189.29 219.83C1198.73 239.088 1202.39 257.952 1200.28 276.424C1198.3 294.509 1190.93 311.364 1178.18 326.99C1165.3 342.356 1147.43 355.656 1124.55 366.891L1039.35 408.737L1045.57 389.216L1094.53 489.15L1066 503.162ZM1250.29 412.652L1132.31 347.583L1163.15 332.435L1281.52 397.315L1250.29 412.652ZM1046.71 391.559L1027.3 384.144L1111.73 342.677C1138.72 329.422 1156.22 313.401 1164.23 294.613C1172.5 275.699 1171.34 255.442 1160.76 233.842C1150.05 211.981 1134.69 198.537 1114.69 193.508C1094.94 188.354 1071.58 192.404 1044.59 205.658L960.156 247.126L966.184 227.215L1046.71 391.559Z" stroke="#9ad351" stroke-width="4" mask="url(#path-1-outside-1_4136_26147)"/>
<path d="M1296.03 202.758L1438.68 132.698L1450.73 157.291L1308.09 227.351L1296.03 202.758ZM1360.9 327.331L1523.21 247.614L1535.46 272.598L1344.61 366.326L1210.72 93.0707L1395.78 2.18241L1408.02 27.1658L1251.49 104.042L1360.9 327.331Z" stroke="#9ad351" stroke-width="4" mask="url(#path-1-outside-1_4136_26147)"/>
</g>
</svg>
